<svg width="166" height="30" viewBox="0 0 166 30" fill="none" xmlns="http://www.w3.org/2000/svg">
<path d="M114.99 12.244C113.282 12.244 112.428 13.28 112.428 15.058C112.428 16.85 113.282 17.886 114.99 17.886C116.698 17.886 117.538 16.85 117.538 15.058C117.538 13.266 116.684 12.244 114.99 12.244Z" fill="#F42728"/>
<path d="M68.1268 10.76L67.0488 14.792H69.8488L68.7568 10.76H68.1268Z" fill="#F42728"/>
<path d="M89.4959 10.76L88.4179 14.792H91.2179L90.1259 10.76H89.4959Z" fill="#F42728"/>
<path d="M134.281 12.244C132.573 12.244 131.719 13.28 131.719 15.058C131.719 16.85 132.573 17.886 134.281 17.886C135.989 17.886 136.829 16.85 136.829 15.058C136.829 13.266 135.975 12.244 134.281 12.244Z" fill="#F42728"/>
<path fill-rule="evenodd" clip-rule="evenodd" d="M0 8C0 3.58172 3.58172 0 8 0H142C146.418 0 150 3.58172 150 8V22C150 26.4183 146.418 30 142 30H8C3.58172 30 0 26.4183 0 22V8ZM8 2C4.68629 2 2 4.68629 2 8V22C2 25.3137 4.68629 28 8 28H36C39.3137 28 42 25.3137 42 22V15V8C42 4.68629 39.3137 2 36 2H8ZM114.99 20.196C111.77 20.196 109.796 17.984 109.796 15.058C109.796 12.146 111.77 9.93396 114.99 9.93396C118.196 9.93396 120.156 12.146 120.156 15.058C120.156 17.984 118.196 20.196 114.99 20.196ZM54.548 20H52V10.13H56.998L59.434 19.37H60.064L59.574 17.816V10.13H62.122V20H57.124L54.688 10.76H54.058L54.548 12.314V20ZM65.6488 20H62.9748L65.7188 10.13H71.1928L73.9508 20H71.2488L70.4508 17.018H66.4468L65.6488 20ZM74.7227 20H77.2707V15.884H77.7887L80.9667 20H84.1867L80.0007 14.862L84.0887 10.13H81.0227L77.8167 13.91H77.2707V10.13H74.7227V20ZM87.0179 20H84.3439L87.0879 10.13H92.5619L95.3199 20H92.6179L91.8199 17.018H87.8159L87.0179 20ZM96.0918 20H98.6398V13.854L98.1498 10.76H98.7798L99.8718 20H104.786L105.906 10.76H106.508L106.046 13.854V20H108.58V10.13H103.61L102.686 19.37H102.042L101.118 10.13H96.0918V20ZM120.021 10.13V12.356H123.199V20H125.733V12.356H128.911V10.13H120.021ZM134.281 20.196C131.061 20.196 129.087 17.984 129.087 15.058C129.087 12.146 131.061 9.93396 134.281 9.93396C137.487 9.93396 139.447 12.146 139.447 15.058C139.447 17.984 137.487 20.196 134.281 20.196Z" fill="#F42728"/>
<path fill-rule="evenodd" clip-rule="evenodd" d="M16.0473 12C15.5835 12 15.1667 12 15.1667 11.2395V10L13 10V13H10V15H14L13 15.5V16H11V18H15L13.7374 18.6313C14.617 20.059 16.1971 21 18 21C19.6356 21 21.0878 20.2147 22 19.0005C22.9122 20.2147 24.3644 21 26 21C27.8029 21 29.383 20.059 30.2626 18.6313L29 18H33V16H31V15.5L30 15H34V13H31V10H28.8333V11.2395C28.8333 12 28.3333 12 27.9527 12H16.0473ZM21 15L20 15.5C20 16.6046 19.1046 17.5 18 17.5C16.8954 17.5 16 16.6046 16 15.5L15 15H21ZM29 15L28 15.5C28 16.6046 27.1046 17.5 26 17.5C24.8954 17.5 24 16.6046 24 15.5L23 15H29Z" fill="#F42728"/>
<path d="M154 0V1.12766H155.695V5H157.047V1.12766H158.743V0H154Z" fill="#F42728"/>
<path d="M159.338 5H160.697V1.88652L160.436 0.319149H160.772L161.354 5H163.976L164.573 0.319149H164.895L164.648 1.88652V5H166V0H163.348L162.856 4.68085H162.512L162.019 0H159.338V5Z" fill="#F42728"/>
</svg>
