<svg width="195" height="182" viewBox="0 0 195 182" fill="none"
  xmlns="http://www.w3.org/2000/svg">
  <path fillRule="evenodd" clipRule="evenodd" d="M0 0H194.84V182L153.286 153.649L160 148.452L42.7928 30.3556L36.7646 36.2073L0 0Z" fill="white" fill-opacity="0.01"/>
  <mask id="mask0_2324_578" style="mask-type:alpha" maskUnits="userSpaceOnUse" x="0" y="0" width="195" height="182">
    <path fillRule="evenodd" clipRule="evenodd" d="M0 0H194.84V182L153.286 153.649L160 148.452L42.7928 30.3556L36.7646 36.2073L0 0Z" fill="white"/>
  </mask>
  <g mask="url(#mask0_2324_578)">
    <g filter="url(#filter0_d_2324_578)">
      <path d="M185.733 172.526C185.733 172.527 185.731 172.527 185.728 172.527C185.731 172.526 185.733 172.526 185.733 172.526ZM185.475 172.188C185.538 172.321 185.578 172.426 185.6 172.504C185.522 172.481 185.418 172.442 185.284 172.379C184.918 172.205 184.405 171.89 183.747 171.43C182.434 170.512 180.591 169.052 178.271 167.099C173.635 163.194 167.121 157.341 159.199 149.973C143.355 135.238 121.889 114.458 98.555 91.1236C75.221 67.7897 54.4403 46.3231 39.7056 30.4797C32.3377 22.5574 26.4843 16.044 22.5798 11.4074C20.6265 9.08791 19.1664 7.24431 18.2488 5.93152C17.7885 5.27308 17.4735 4.76033 17.2999 4.39409C17.2368 4.26083 17.1971 4.15662 17.1748 4.07839C17.253 4.10069 17.3572 4.14038 17.4905 4.20352C17.8567 4.37705 18.3695 4.69212 19.0279 5.15235C20.3407 6.06995 22.1843 7.53013 24.5038 9.48336C29.1405 13.3878 35.6538 19.2413 43.5761 26.6092C59.4195 41.3439 80.8861 62.1246 104.22 85.4586C127.554 108.792 148.335 130.259 163.069 146.102C170.437 154.025 176.291 160.538 180.195 165.175C182.148 167.494 183.609 169.338 184.526 170.651C184.986 171.309 185.302 171.822 185.475 172.188ZM17.1521 3.94597C17.1522 3.94605 17.1521 3.94755 17.1516 3.95021C17.1517 3.94721 17.152 3.94588 17.1521 3.94597ZM17.0424 4.05567C17.0423 4.05558 17.0436 4.05534 17.0466 4.05524C17.044 4.05571 17.0425 4.05577 17.0424 4.05567ZM185.623 172.632C185.623 172.635 185.623 172.636 185.623 172.636C185.623 172.636 185.623 172.635 185.623 172.632Z" stroke="white" strokeWidth="0.654676"/>
    </g>
  </g>
  <defs>
    <filter id="filter0_d_2324_578" x="13.5511" y="0.455134" width="175.673" height="175.673" filterUnits="userSpaceOnUse" colorInterpolationFilters="sRGB">
      <feFlood floodOpacity="0" result="BackgroundImageFix"/>
      <feColorMatrix in="SourceAlpha" type="matrix" values="0 0 0 0 0 0 0 0 0 0 0 0 0 0 0 0 0 0 127 0" result="hardAlpha"/>
      <feOffset/>
      <feGaussianBlur stdDeviation="1.63669"/>
      <feColorMatrix type="matrix" values="0 0 0 0 1 0 0 0 0 1 0 0 0 0 1 0 0 0 0.5 0"/>
      <feBlend mode="normal" in2="BackgroundImageFix" result="effect1_dropShadow_2324_578"/>
      <feBlend mode="normal" in="SourceGraphic" in2="effect1_dropShadow_2324_578" result="shape"/>
    </filter>
  </defs>
</svg>
