<?xml version="1.0" standalone="no"?>
<!DOCTYPE svg PUBLIC "-//W3C//DTD SVG 1.1//EN" "http://www.w3.org/Graphics/SVG/1.1/DTD/svg11.dtd" >
<svg xmlns="http://www.w3.org/2000/svg">
<metadata>Generated by IcoMoon</metadata>
<defs>
<font id="icomoon" horiz-adv-x="1024">
<font-face units-per-em="1024" ascent="960" descent="-64" />
<missing-glyph horiz-adv-x="1024" />
<glyph unicode="&#x20;" horiz-adv-x="512" d="" />
<glyph unicode="&#xe900;" d="M511.996 823.928c-180.226 0-326.731-147.014-326.731-327.868 0-171.517 172.086-424.709 326.731-424.709s326.73 253.192 326.73 424.709c0 180.854-146.506 327.868-326.73 327.868z" />
<glyph unicode="&#xe901;" d="M177.827 496.061c0 184.937 149.812 335.306 334.169 335.306s334.167-150.368 334.167-335.306c0-87.849-43.879-195.543-106.819-281.081-31.542-42.865-68.107-80.504-106.803-107.487-38.65-26.955-79.87-43.578-120.546-43.578s-81.898 16.623-120.548 43.578c-38.693 26.984-75.261 64.622-106.801 107.487-62.94 85.538-106.82 193.231-106.82 281.081zM511.996 816.491c-176.093 0-319.293-143.66-319.293-320.43 0-83.668 42.163-188.328 103.926-272.265 30.812-41.874 66.264-78.251 103.33-104.101 37.109-25.88 75.39-40.905 112.037-40.905 36.645 0 74.928 15.025 112.037 40.905 37.066 25.849 72.516 62.227 103.33 104.101 61.763 83.937 103.925 188.598 103.925 272.265 0 176.77-143.199 320.43-319.292 320.43z" />
<glyph unicode="&#xe902;" d="M754.428 496.063c0-134.181-145.925-340.119-242.433-340.119s-242.43 205.938-242.43 340.119c0 134.181 108.716 243.275 242.43 243.275 133.717 0 242.433-109.094 242.433-243.275z" />
<glyph unicode="&#xe903;" d="M511.996 731.899c-129.582 0-234.993-105.74-234.993-235.837 0-64.9 35.533-148.415 83.649-216.066 23.971-33.706 50.787-63.071 77.344-83.929 26.743-21.001 52.33-32.684 74-32.684s47.259 11.683 74 32.684c26.559 20.858 53.375 50.223 77.346 83.929 48.114 67.651 83.649 151.166 83.649 216.066 0 130.097-105.411 235.837-234.995 235.837zM262.128 496.063c0 138.265 112.021 250.712 249.868 250.712s249.87-112.448 249.87-250.712c0-69.28-37.428-155.826-86.402-224.687-24.572-34.55-52.332-65.058-80.279-87.005-27.762-21.804-56.604-35.862-83.189-35.862-26.583 0-55.425 14.058-83.187 35.862-27.946 21.948-55.707 52.455-80.279 87.005-48.976 68.861-86.402 155.407-86.402 224.687z" />
<glyph unicode="&#xe904;" d="M338.746 486.726c0.583 5.833 6.395 9.335 11.628 7.585 20.347-8.167 67.439-31.503 101.74-79.343 33.138-46.088 35.464-87.508 34.301-106.76-0.58-5.835-6.395-9.335-11.628-7.585-20.347 8.167-67.439 31.503-101.74 79.343-33.138 45.504-35.464 87.508-34.301 106.76z" />
<glyph unicode="&#xe905;" d="M685.244 486.726c-0.58 5.833-6.395 9.335-11.628 7.585-20.347-8.752-67.439-32.087-101.74-79.343-33.138-46.088-35.464-87.508-34.301-106.76 0.583-5.835 6.395-9.335 11.628-7.585 20.349 8.167 67.439 31.503 101.74 79.343 33.138 45.504 35.464 87.508 34.301 106.76z" />
<glyph unicode="&#xe906;" d="M302.703 568.407c7.558 22.751 19.186 44.337 34.301 63.006 14.534 19.252 32.557 36.171 52.324 50.172 20.347 13.418 42.44 24.502 65.695 30.336s48.835 6.418 71.508 0.585c0.58 0 1.163-1.167 1.163-1.752 0-0.583-0.583-1.165-1.746-1.165-23.254 2.332-46.509-1.167-68.602-7.585-5.232-1.75-11.045-3.501-16.278-5.833-5.232-1.752-10.465-4.668-15.697-7-10.465-5.251-19.767-11.086-29.649-17.502-18.604-13.418-36.046-28.586-51.161-46.673-15.117-17.502-28.488-36.754-40.114-57.172-0.583-0.583-1.163-1.167-1.746-0.583 0 0 0 0.583 0 1.167z" />
<glyph unicode="&#xe907;" d="M677.688 631.41c6.978-4.666 12.21-11.084 17.443-17.502 5.232-6.416 9.302-13.418 12.789-21.001 3.489-7.585 6.395-15.168 8.141-23.335 1.743-8.167 2.906-16.335 2.324-24.502 0-0.585-0.58-1.167-1.743-1.167-0.58 0-1.163 0.583-1.163 1.167-2.906 7.583-5.813 14.583-8.721 22.168-2.906 7-6.393 14.001-9.882 21.001-6.976 14.003-13.954 27.421-22.093 41.422-0.58 0.583 0 1.75 0.583 1.75 1.163 0.585 1.743 0.585 2.324 0z" />
<glyph unicode="&#xe908;" d="M484.092 171.694c-11.047 5.251-21.512 11.667-30.814 19.252-9.882 7-19.184 15.168-27.906 23.335-8.719 8.167-16.86 17.502-24.999 26.837-7.558 9.335-14.534 19.252-20.347 30.336-0.583 0.585 0 1.75 0.58 1.75 0.583 0.585 1.163 0 1.746-0.583 16.858-17.502 33.138-33.837 50.579-50.172s34.881-32.087 52.324-48.422c0.58-0.583 0.58-1.75 0-2.332 0 0-0.583-0.585-1.163 0z" />
<glyph unicode="&#xe909;" d="M407.93 438.308c8.719-4.668 15.697-11.669 22.673-18.669 6.395-7 12.208-14.585 17.441-23.335 5.232-8.167 9.302-16.92 12.791-26.252 3.489-9.335 5.813-18.669 5.813-28.586 0-1.167-1.163-2.334-2.324-2.334-0.583 0-1.746 0.583-1.746 1.167-5.232 8.167-10.465 15.75-15.115 23.335l-14.534 23.335c-4.652 7.585-9.884 15.752-14.534 23.335-4.652 8.167-9.302 15.752-13.954 24.502-0.58 1.167 0 2.334 1.163 2.917 1.163 1.167 1.743 1.167 2.326 0.585z" />
<glyph unicode="&#xe90a;" d="M618.97 435.387c-4.652-8.75-9.302-16.335-13.954-24.502-4.65-8.167-9.302-15.75-14.534-23.335l-14.534-23.335c-4.65-7.585-9.882-15.752-15.115-23.335-0.58-1.167-2.326-1.167-2.906-0.585-0.583 0.585-1.163 1.167-1.163 1.752 0 9.917 2.906 19.834 5.813 28.586 3.489 9.335 7.558 18.085 12.791 26.252s11.045 15.752 17.441 23.335c6.395 7 13.954 13.418 22.673 18.669 1.163 0.583 2.326 0 2.908-0.583 0.58-1.752 0.58-2.334 0.58-2.919z" />
<glyph unicode="&#xe90b;" d="M829.787 496.623c33.263 127.935 4.157 229.325 2.878 233.801-7.356 24.948-32.304 40.301-57.89 35.823-30.066-5.117-57.892-12.154-83.48-19.829-13.433 54.692-96.591 79.319-178.789 79.319-82.519 0-165.357-24.628-178.789-79.319-25.588 7.675-53.414 14.392-83.477 19.829-25.588 4.478-50.535-10.875-57.891-35.823-1.279-4.476-30.385-105.546 2.878-233.801-14.393-35.182-21.429-72.283-21.429-110.024 0-173.352 152.242-314.401 339.029-314.401 186.785 0 339.028 141.048 339.028 314.401-0.64 37.741-7.996 74.842-22.068 110.024z" />
<glyph unicode="&#xe90c;" d="M394.459 813.498c33.829 13.44 76.162 19.676 118.048 19.676 41.729 0 84.060-6.236 117.926-19.675 30.877-12.252 56.034-31.075 65.822-57.864 23.842 6.925 49.6 13.233 77.256 17.941 29.281 5.114 57.857-12.453 66.29-41.047l0.016-0.061 0.006-0.016c1.486-5.206 30.516-106.803-2.23-235.342 13.827-35.356 21.058-72.565 21.7-110.386v-0.125c0-177.982-156.114-321.841-346.466-321.841-190.354 0-346.467 143.859-346.467 321.841 0 37.855 6.911 75.124 21.055 110.543-32.696 128.681-3.781 229.858-2.228 235.289l0.019 0.067 0.009 0.031c8.434 28.6 37.022 46.169 66.307 41.044l0.041-0.007c27.576-4.987 53.309-11.046 77.194-17.937 9.772 26.785 34.851 45.612 65.702 57.869zM399.953 799.674c-31.775-12.624-53.138-31.115-59.012-55.030l-1.866-7.599-7.495 2.248c-25.304 7.591-52.849 14.242-82.642 19.631-21.872 3.817-43.159-9.303-49.447-30.574l-0.004-0.016c-1.324-4.629-29.718-103.921 2.94-229.842l0.621-2.395-0.937-2.289c-14.016-34.26-20.875-70.403-20.875-107.207 0-168.725 148.373-306.965 331.591-306.965 183.194 0 331.553 138.205 331.59 306.902-0.632 36.829-7.812 73.013-21.537 107.326l-0.907 2.269 0.615 2.365c32.692 125.741 4.198 225.431 2.935 229.854-6.289 21.277-27.589 34.4-49.467 30.571l-0.016-0.003-0.018-0.003c-29.7-5.055-57.223-12.012-82.588-19.622l-7.493-2.248-1.866 7.599c-5.872 23.907-27.305 42.4-59.128 55.029-31.623 12.548-71.968 18.626-112.44 18.626-40.633 0-80.976-6.078-112.554-18.625z" />
<glyph unicode="&#xe90d;" d="M775.415 492.782c37.422 124.096 7.996 222.927 7.996 222.927-98.19-17.273-173.992-53.414-209.174-72.285-20.151 4.159-40.94 6.077-62.049 6.077s-42.219-2.238-62.049-6.077c-35.182 19.19-110.982 55.012-209.174 72.285 0 0-29.424-99.15 7.996-222.927-15.671-32.625-24.627-68.447-24.627-106.187 0-145.206 128.895-263.227 287.854-263.227s287.854 117.701 287.854 263.227c0 37.741-8.954 73.562-24.627 106.187z" />
<glyph unicode="&#xe90e;" d="M233.834 717.825c1.077 3.622 4.697 5.864 8.419 5.208 97.1-17.079 172.514-52.095 209.102-71.807 19.489 3.616 40.142 5.713 60.833 5.713 20.639 0 41.038-1.795 60.9-5.696 36.543 19.395 111.941 54.713 209.035 71.79 3.718 0.656 7.338-1.582 8.417-5.202l-7.129-2.124c7.129 2.124 7.129 2.122 7.131 2.117l0.008-0.031 0.022-0.074c0.016-0.061 0.041-0.147 0.074-0.255 0.061-0.217 0.149-0.529 0.26-0.934 0.221-0.809 0.533-1.987 0.914-3.518 0.762-3.062 1.793-7.534 2.906-13.269 2.226-11.47 4.779-28.012 6.142-48.469 2.684-40.306 0.748-95.909-17.51-157.886 15.352-32.852 24.122-68.863 24.122-106.794 0-150.25-132.869-270.665-295.292-270.665-162.43 0-295.292 120.742-295.292 270.665 0 37.929 8.77 73.941 24.122 106.792-18.26 61.824-20.194 117.427-17.51 157.768 1.363 20.476 3.916 37.048 6.142 48.541 1.112 5.747 2.144 10.23 2.904 13.3 0.38 1.535 0.693 2.716 0.914 3.528 0.11 0.405 0.198 0.717 0.262 0.936 0.031 0.108 0.055 0.194 0.074 0.255l0.020 0.074 0.006 0.022 0.004 0.008c0 0.002 0 0.006 7.131-2.111l-7.131 2.117zM246.447 707.156c-0.625-2.661-1.384-6.111-2.193-10.287-2.122-10.966-4.587-26.918-5.903-46.701-2.633-39.58-0.666-94.386 17.729-155.233 0.54-1.78 0.39-3.697-0.415-5.373-15.225-31.697-23.893-66.423-23.893-102.966 0-140.488 124.928-255.789 280.417-255.789 155.495 0 280.417 114.986 280.417 255.789 0 36.543-8.668 71.269-23.893 102.966-0.805 1.674-0.955 3.589-0.417 5.367 18.397 61.013 20.363 115.82 17.731 155.36-1.316 19.763-3.781 35.685-5.903 46.622-0.807 4.159-1.564 7.595-2.189 10.246-93.854-17.52-166.213-52.067-200.181-70.286-1.537-0.824-3.313-1.081-5.020-0.73-19.601 4.045-39.883 5.923-60.545 5.923-20.594 0-41.23-2.185-60.635-5.94-1.698-0.329-3.458-0.057-4.975 0.773-33.909 18.493-106.261 52.749-200.132 70.259z" />
<glyph unicode="&#xe90f;" d="M512.188 290.968c-83.477 0-161.518 20.791-228.364 56.931 19.83-98.829 114.502-173.992 228.364-173.992s208.534 75.163 228.364 173.992c-66.846-36.14-144.887-56.931-228.364-56.931z" />
<glyph unicode="&#xe910;" d="M279.403 353.882c2.32 1.715 5.42 1.934 7.959 0.562 65.765-35.558 142.589-56.038 224.826-56.038s159.063 20.48 224.828 56.038c2.536 1.371 5.639 1.153 7.959-0.562 2.318-1.715 3.438-4.617 2.87-7.444-20.599-102.668-118.635-179.969-235.657-179.969s-215.056 77.301-235.657 179.969c-0.568 2.827 0.552 5.729 2.872 7.444zM294.947 333.762c25.422-87.271 112.683-152.415 217.241-152.415 104.56 0 191.819 65.144 217.241 152.415-64.565-32.024-138.547-50.231-217.241-50.231s-152.674 18.207-217.241 50.231z" />
<glyph unicode="&#xe911;" d="M512.188 310.555c4.106 0 7.438-3.33 7.438-7.438v-145.527c0-4.108-3.332-7.438-7.438-7.438-4.108 0-7.438 3.33-7.438 7.438v145.527c0 4.108 3.33 7.438 7.438 7.438z" />
<glyph unicode="&#xe912;" d="M397.686 347.977c4.108 0 7.438-3.33 7.438-7.438v-174.313c0-4.108-3.33-7.438-7.438-7.438s-7.438 3.33-7.438 7.438v174.313c0 4.108 3.33 7.438 7.438 7.438z" />
<glyph unicode="&#xe913;" d="M310.049 376.768c4.106 0 7.438-3.332 7.438-7.438v-150.005c0-4.108-3.332-7.438-7.438-7.438-4.108 0-7.438 3.33-7.438 7.438v150.005c0 4.106 3.33 7.438 7.438 7.438z" />
<glyph unicode="&#xe914;" d="M626.69 347.977c4.106 0 7.438-3.33 7.438-7.438v-174.313c0-4.108-3.332-7.438-7.438-7.438-4.108 0-7.438 3.33-7.438 7.438v174.313c0 4.108 3.33 7.438 7.438 7.438z" />
<glyph unicode="&#xe915;" d="M714.327 376.768c4.106 0 7.438-3.332 7.438-7.438v-150.005c0-4.108-3.332-7.438-7.438-7.438-4.108 0-7.438 3.33-7.438 7.438v150.005c0 4.106 3.33 7.438 7.438 7.438z" />
<glyph unicode="&#xe916;" d="M317.405 581.703c0-2.238 1.6-3.838 3.838-4.478l23.987-5.437c-18.551-15.352-35.822-32.944-52.132-53.093-0.961-1.279-2.24-1.919-3.838-1.919-0.321 0-0.64 0-0.961 0-1.598 0.319-3.197 1.598-3.836 3.199-26.227 78.999-8.956 143.607-8.317 146.485 0.64 2.559 3.199 3.838 5.437 3.52 44.138-8.638 79.641-24.629 101.388-36.142l-33.581-1.6c-2.24 0-3.838-1.598-4.478-3.518-0.64-2.238 0.319-4.157 2.238-5.437l29.426-16.631-56.612-20.151c-1.279-0.959-2.559-2.878-2.559-4.797z" />
<glyph unicode="&#xe917;" d="M739.594 519.974c-0.64-1.6-1.919-2.88-3.838-3.199-0.319 0-0.64 0-0.959 0-1.6 0-2.88 0.64-3.838 1.919-15.992 20.149-33.263 38.060-52.134 53.093l23.987 5.437c1.919 0.64 3.52 2.24 3.838 4.478 0 2.24-1.279 4.157-3.199 4.797l-56.61 20.151 29.424 16.631c1.919 0.959 2.88 3.199 2.24 5.437-0.64 1.919-2.24 3.52-4.478 3.52l-33.584 1.598c21.749 11.834 57.252 27.826 101.388 36.142 2.559 0.64 4.799-0.961 5.439-3.52 1.277-2.559 18.551-67.486-7.677-146.485z" />
<glyph unicode="&#xe918;" d="M512.188 352.057c8.125 0 14.712 6.585 14.712 14.712 0 8.125-6.588 14.712-14.712 14.712-8.127 0-14.712-6.588-14.712-14.712 0-8.127 6.585-14.712 14.712-14.712z" />
<glyph unicode="&#xe919;" d="M512.188 374.043c-4.018 0-7.274-3.258-7.274-7.274 0-4.018 3.256-7.276 7.274-7.276s7.274 3.258 7.274 7.276c0 4.016-3.256 7.274-7.274 7.274zM490.038 366.769c0 12.233 9.917 22.15 22.15 22.15s22.15-9.917 22.15-22.15c0-12.235-9.917-22.152-22.15-22.152s-22.15 9.917-22.15 22.152z" />
<glyph unicode="&#xe91a;" d="M410.479 450.25l-31.985-54.053-14.712 92.113-30.385 24.627c-14.393-9.594-23.348-26.865-23.348-49.254 0-42.859 33.584-88.275 74.842-101.069 39.020-12.153 71.003 8.956 74.523 47.337l-48.935 40.3z" />
<glyph unicode="&#xe91b;" d="M329.27 519.126c2.71 1.807 6.281 1.641 8.809-0.411l30.385-24.627c1.425-1.155 2.373-2.794 2.661-4.605l11.462-71.762 21.49 36.316c1.106 1.87 2.974 3.162 5.114 3.538s4.337-0.204 6.015-1.584l48.935-40.3c1.901-1.566 2.902-3.969 2.678-6.42-1.94-21.171-11.851-38.248-27.333-48.197-15.458-9.933-35.556-12.182-56.806-5.561-22.399 6.947-42.344 22.595-56.661 41.937-14.316 19.342-23.407 42.926-23.407 66.233 0 24.417 9.843 44.232 26.659 55.443zM384.891 362.611v0c-67.404 118.909-61.213 132.423-51.631 140.862-8.073-79.894-15.773-59.341-15.773-39.791 50.75-88.117 33.277-74.662 20.488-57.385l49.119-36.58c33.181-3.307 17.776-5.537 0.008-0.002 62.119 21.815 54.642 10.491 44.341 3.873l20.098 33.207-39.086 32.19c-32.271-50.683-29.156-49.275-27.56-46.577-13.251-0.48-10.87-2.933-7.791-3.52l-5.954 6.134-14.264 89.301z" />
<glyph unicode="&#xe91c;" d="M613.897 450.248l31.983-54.051 15.033 92.434 30.385 24.627c14.391-9.596 23.348-26.867 23.348-49.256 0-42.857-33.584-88.275-74.842-101.067-39.020-12.155-71.006 8.954-74.523 47.335l48.616 39.979z" />
<glyph unicode="&#xe91d;" d="M686.613 519.036c2.53 2.050 6.101 2.216 8.809 0.409 16.817-11.211 26.661-31.027 26.661-55.443 0-23.307-9.091-46.891-23.409-66.233-14.316-19.342-34.26-34.99-56.659-41.937-21.253-6.62-41.348-4.372-56.806 5.561-15.483 9.95-25.394 27.027-27.335 48.197-0.225 2.453 0.781 4.858 2.684 6.424l48.614 39.979c1.678 1.38 3.875 1.956 6.013 1.58 2.14-0.376 4.006-1.668 5.114-3.536l21.535-36.396 11.738 72.183c0.292 1.801 1.239 3.434 2.657 4.582l30.385 24.629zM691.433 503.793l-23.634-19.156-14.577-89.634c-0.503-3.090-2.886-5.535-5.962-6.115s-6.187 0.826-7.781 3.522l-27.562 46.581-38.763-31.877c2.32-15.264 9.796-26.587 20.096-33.205 11.168-7.178 26.573-9.408 44.343-3.873l0.008 0.002c18.857 5.848 36.331 19.303 49.117 36.582 12.791 17.279 20.49 37.833 20.49 57.383 0 17.837-6.191 31.352-15.775 39.791z" />
<glyph unicode="&#xe91e;" d="M286.702 470.080c-0.64-11.513 0.321-22.389 2.559-33.263 2.559-10.876 6.397-21.11 11.515-30.706 5.116-9.594 11.832-18.551 19.19-26.865 7.675-7.996 15.992-15.354 25.267-22.070 0.64-0.319 0.64-1.279 0.319-1.598-0.319-0.321-0.959-0.64-1.279-0.321-10.874 4.478-20.789 10.876-29.745 18.551-8.954 7.996-16.31 17.271-22.068 27.826s-9.594 22.070-10.874 33.904c-1.6 11.834-0.961 23.987 2.878 35.182 0.319 0.64 0.959 0.959 1.598 0.64 0.321 0 0.64-0.64 0.64-1.279z" />
<glyph unicode="&#xe91f;" d="M739.913 470.718c3.838-11.195 4.478-23.35 2.878-35.182-1.598-11.834-5.437-23.35-10.874-33.904-5.758-10.555-13.114-20.149-22.070-27.826-8.954-7.996-18.869-14.391-29.745-18.551-0.64-0.319-1.279 0-1.598 0.64s0 0.961 0.321 1.279c9.275 6.716 17.911 14.072 25.267 22.068 7.356 7.998 14.072 16.952 19.19 26.867 5.116 9.596 8.954 20.151 11.513 30.706 2.559 10.874 3.199 21.747 2.559 33.263 0 0.64 0.319 1.279 1.279 1.279 0.64 0 1.279-0.321 1.279-0.64z" />
<glyph unicode="&#xe920;" d="M456.218 480.954c-6.397-0.64-12.795-0.959-19.511 0-6.716 0.961-13.433 3.199-19.83 7.037-6.077 3.518-11.513 8.636-15.992 14.072s-7.996 11.513-11.195 17.592v0.319c-3.199 6.397-0.64 14.072 5.758 17.271 6.395 3.199 14.072 0.64 17.271-5.756 0.319-0.961 0.959-1.919 0.959-2.88 2.24-10.555 6.077-20.149 13.114-27.186 3.518-3.518 7.996-6.397 12.793-8.636 5.118-2.238 10.555-3.518 16.312-4.157 2.238-0.321 3.518-2.24 3.199-4.478 0.319-1.598-0.961-2.878-2.878-3.199z" />
<glyph unicode="&#xe921;" d="M568.159 488.627c5.758 0.64 11.513 1.919 16.312 4.159 5.116 2.238 9.275 5.116 12.793 8.636 7.037 7.035 10.874 16.631 13.114 27.186 1.598 7.035 8.315 11.513 15.352 9.915 7.037-1.6 11.513-8.317 9.915-15.354-0.321-0.959-0.64-1.917-0.961-2.878l-0.319-0.319c-2.878-6.079-6.716-12.155-11.195-17.592s-9.915-10.555-15.992-14.072c-6.077-3.838-13.114-6.077-19.83-7.037s-13.114-0.959-19.511 0c-2.238 0.321-3.518 2.24-3.518 4.157 0.64 1.6 1.919 2.88 3.838 3.199z" />
<glyph unicode="&#xe922;" d="M560.165 521.889c-26.546 0-47.977 28.466-47.977 63.968v0c0-35.184-21.428-63.968-47.975-63.968 26.546 0 47.975-28.466 47.975-63.968v-36.78 37.101c0 35.182 21.43 63.647 47.977 63.647z" />
<glyph unicode="&#xe923;" d="M512.188 630.397c4.108 0 7.438-3.332 7.438-7.438v-37.103c0-16.306 4.93-30.691 12.543-40.831 7.605-10.13 17.569-15.697 27.995-15.697 4.106 0 7.438-3.33 7.438-7.438s-3.332-7.438-7.438-7.438c-10.43 0-20.396-5.572-28.004-15.669-7.614-10.105-12.535-24.408-12.535-40.541v-37.103c0-4.106-3.33-7.438-7.438-7.438s-7.438 3.332-7.438 7.438v36.782c0 16.308-4.93 30.693-12.543 40.831-7.605 10.13-17.569 15.699-27.995 15.699-4.106 0-7.438 3.33-7.438 7.438s3.332 7.438 7.438 7.438c10.397 0 20.363 5.619 27.989 15.808 7.626 10.193 12.55 24.586 12.55 40.721v37.103c0 4.106 3.33 7.438 7.438 7.438zM512.155 549.963c-2.24-4.979-4.942-9.594-8.045-13.739-4.276-5.715-9.382-10.612-15.135-14.307 5.745-3.667 10.849-8.533 15.127-14.232 3.113-4.145 5.821-8.76 8.065-13.751 2.254 5.008 4.979 9.643 8.112 13.8 4.266 5.662 9.351 10.504 15.072 14.158-5.725 3.665-10.812 8.519-15.078 14.201-3.137 4.178-5.862 8.834-8.118 13.87z" />
<glyph unicode="&#xe924;" d="M512.188 779.365c-74.202 0-134.653-22.069-134.653-49.254s60.13-49.256 134.653-49.256c74.521 0 134.651 22.070 134.651 49.256s-60.449 49.254-134.651 49.254zM512.188 712.519c-54.053 0-98.192 15.033-98.192 33.263s43.817 33.264 98.192 33.264c54.372 0 98.19-15.033 98.19-33.264s-44.138-33.263-98.19-33.263z" />
<glyph unicode="&#xe925;" d="M414.483 771.918c25.396 9.285 59.962 14.885 97.705 14.885 37.741 0 72.307-5.6 97.705-14.885 12.668-4.631 23.45-10.321 31.202-17.012 7.728-6.671 13.181-15.025 13.181-24.795 0-9.758-5.418-18.111-13.126-24.789-7.73-6.694-18.483-12.386-31.133-17.020-25.363-9.285-59.932-14.886-97.83-14.886s-72.467 5.6-97.83 14.886c-12.652 4.634-23.405 10.326-31.133 17.020-7.71 6.677-13.128 15.031-13.128 24.789 0 9.77 5.455 18.123 13.183 24.795 7.753 6.691 18.532 12.381 31.202 17.012zM392.999 743.644c-5.923-5.112-8.026-9.711-8.026-13.533 0-3.838 2.097-8.437 7.992-13.545 5.876-5.089 14.812-10.011 26.51-14.295 23.333-8.544 56.089-13.978 92.714-13.978 36.623 0 69.381 5.435 92.714 13.978 11.697 4.284 20.633 9.206 26.507 14.295 5.895 5.108 7.992 9.707 7.992 13.545 0 3.822-2.101 8.421-8.026 13.533-3.773 3.258-8.801 6.446-15.002 9.443 0.918-2.265 1.443-4.701 1.443-7.305 0-7.789-4.717-14.060-10.54-18.704-5.909-4.711-13.999-8.64-23.333-11.808-18.741-6.359-44.13-10.189-71.754-10.189s-53.013 3.83-71.756 10.189c-9.333 3.168-17.422 7.096-23.331 11.808-5.823 4.644-10.542 10.914-10.542 18.704 0 2.604 0.525 5.040 1.443 7.305-6.199-2.996-11.227-6.185-15.002-9.443zM426.344 752.866c-4.106-3.291-4.909-5.737-4.909-7.084 0-1.326 0.801-3.771 4.942-7.072 4.055-3.236 10.379-6.483 18.837-9.353 16.84-5.715 40.545-9.4 66.975-9.4s50.133 3.685 66.975 9.4c8.458 2.87 14.78 6.117 18.837 9.353 4.141 3.301 4.94 5.745 4.94 7.072 0 1.347-0.803 3.794-4.909 7.084-4.029 3.23-10.318 6.474-18.753 9.343-16.795 5.712-40.496 9.399-67.089 9.399s-50.297-3.687-67.091-9.399c-8.433-2.868-14.722-6.113-18.753-9.343z" />
<glyph unicode="&#xe926;" d="M756.544 810.104h-501.49c-46.203 0-86.773-28.259-100.86-70.082-13.523-39.564-2.254-82.517 29.864-110.776l114.384-114.733h-43.388c-46.203 0-86.773-28.259-100.86-70.084-13.523-39.562-2.254-82.517 29.864-110.776l216.936-217.595c25.921-29.389 67.055-40.694 104.806-28.259 42.26 14.13 70.997 53.692 71.561 98.341l0.564 46.912 120.019-118.69c19.722-19.781 45.641-30.52 73.252-30.52 13.523 0 27.047 2.827 40.005 7.912 38.879 16.392 64.236 54.258 64.236 96.646v503.015c0 64.996-53.53 118.688-118.892 118.688z" />
<glyph unicode="&#xe927;" d="M147.15 742.411c15.17 45.016 58.703 75.13 107.904 75.13h501.49c69.468 0 126.33-57.021 126.33-126.126v-503.015c0-45.399-27.166-85.955-68.784-103.5l-0.172-0.069c-13.721-5.386-28.163-8.427-42.724-8.427-29.588 0-57.393 11.526-78.503 32.69-0.006 0.006-0.010 0.010-0.016 0.016l-107.526 106.332-0.352-29.391v-0.006c-0.603-47.795-31.36-90.163-76.641-105.3l-0.016-0.006-0.014-0.006c-40.504-13.339-84.659-1.263-112.558 30.232l-216.61 217.268c-34.218 30.234-46.277 76.24-31.809 118.586 15.17 45.017 58.703 75.132 107.904 75.132h25.471l-101.566 101.873c-34.218 30.236-46.277 76.24-31.809 118.588zM255.054 802.666c-43.2 0-80.803-26.397-93.812-65.019l-0.011-0.033c-12.544-36.696-2.133-76.502 27.739-102.786l0.183-0.159 127.208-127.593h-61.307c-43.2 0-80.803-26.397-93.812-65.019l-0.011-0.033c-12.544-36.698-2.133-76.504 27.739-102.786l0.183-0.159 217.42-218.1c23.944-27.151 61.961-37.616 96.886-26.119 39.229 13.124 65.939 49.876 66.464 91.371zM808.396 98.644c36.093 15.256 59.603 50.411 59.603 89.756v503.015c0 60.886-50.198 111.25-111.455 111.25h-501.49zM808.396 98.644c-12.174-4.766-24.746-7.364-37.201-7.364-25.625 0-49.653 9.946-67.985 28.333l-0.018 0.020-132.495 131.025-0.775-64.424z" />
<glyph unicode="&#xe928;" d="M495.657 187.841l3.945 241.333v232.291c0 23.172 28.173 35.041 44.514 18.651l201.722-202.335c16.341-16.39 5.071-44.649-18.593-44.649h-177.493c-19.722 0-29.866-24.304-15.777-38.434l222.008-222.682c14.087-14.13 38.315-3.955 38.315 15.826v503.013c0 20.911-16.905 37.301-37.189 37.301h-502.052c-23.666 0-33.808-24.302-15.779-38.432l211.866-212.51c16.341-16.39 5.071-44.649-18.593-44.649h-177.493c-23.666 0-33.808-24.302-15.779-38.432l222.008-222.118c10.144-14.13 34.372-3.955 34.372 15.826z" />
<glyph unicode="&#xe929;" d="M224.657 717.079c4.525 10.955 15.93 18.514 30.399 18.514h502.052c24.341 0 44.627-19.669 44.627-44.739v-503.013c0-26.362-32.216-39.94-51.022-21.077l-222.008 222.682c-18.73 18.788-5.341 51.122 21.046 51.122h177.493c16.924 0 25.079 20.171 13.326 31.959l-201.722 202.337c-11.556 11.591-31.809 3.287-31.809-13.4v-232.291c0-0.041 0-0.082-0.002-0.123l-3.943-241.276c-0.027-13.128-8.118-23.066-17.805-27.364-9.506-4.217-21.982-3.405-29.657 6.739l-221.315 221.423c-11.137 8.954-14.222 21.88-9.662 32.913 4.525 10.955 15.93 18.516 30.399 18.516h177.493c16.924 0 25.079 20.173 13.326 31.961l-211.561 212.205c-11.133 8.954-14.217 21.878-9.657 32.911zM238.404 711.397c-1.87-4.527-1.13-10.655 5.461-15.82 0.239-0.186 0.466-0.388 0.681-0.603l211.864-212.51c20.93-20.993 6.547-57.338-23.861-57.338h-177.493c-9.198 0-14.698-4.591-16.652-9.32-1.87-4.527-1.13-10.655 5.461-15.82 0.237-0.186 0.462-0.384 0.672-0.597l222.008-222.116c0.286-0.286 0.548-0.595 0.783-0.922 2.504-3.489 6.949-4.552 11.93-2.342 4.948 2.195 8.961 7.209 8.961 13.831 0 0.039 0 0.080 0.002 0.121l3.943 241.272v232.231c0 29.659 36.093 45.091 57.219 23.902l201.722-202.335c20.93-20.993 6.547-57.338-23.861-57.338h-177.493c-13.059 0-19.953-16.274-10.51-25.745l222.008-222.682c9.367-9.396 25.61-2.626 25.61 10.575v503.013c0 16.752-13.523 29.864-29.751 29.864h-502.052c-9.198 0-14.698-4.591-16.652-9.32z" />
<glyph unicode="&#xe92a;" d="M511.44 679.686c-205.152 0-365.76-101.799-365.76-231.622s160.609-231.62 365.76-231.62c205.154 0 365.762 101.797 365.762 231.62s-160.609 231.622-365.762 231.622z" />
<glyph unicode="&#xe92b;" d="M247.649 618.84c67.192 42.562 160.071 68.283 263.791 68.283 103.722 0 196.602-25.721 263.793-68.283 67.151-42.534 109.407-102.496 109.407-170.777s-42.256-128.243-109.407-170.777c-67.192-42.562-160.071-68.281-263.793-68.281-103.72 0-196.6 25.719-263.791 68.281-67.15 42.534-109.407 102.496-109.407 170.777s42.256 128.243 109.407 170.777zM255.608 606.274c-64.442-40.821-102.49-96.669-102.49-158.211s38.048-117.39 102.49-158.211c64.4-40.792 154.401-65.971 255.832-65.971 101.433 0 191.433 25.179 255.834 65.971 64.443 40.821 102.49 96.669 102.49 158.211s-38.047 117.39-102.49 158.211c-64.402 40.792-154.401 65.973-255.834 65.973-101.431 0-191.433-25.181-255.832-65.973z" />
<glyph unicode="&#xe92c;" d="M298.348 563.107c-54.399-30.501-85.973-71.469-85.973-115.035s31.574-84.534 85.973-115.038c54.162-30.368 129.486-49.387 213.094-49.387 83.606 0 158.931 19.019 213.092 49.387 54.399 30.503 85.973 71.472 85.973 115.038s-31.574 84.534-85.973 115.035c-54.162 30.37-129.486 49.387-213.092 49.387-83.608 0-158.933-19.017-213.094-49.387zM291.074 576.084c56.77 31.832 134.698 51.286 220.368 51.286s163.597-19.454 220.368-51.286c56.533-31.701 93.572-76.663 93.572-128.012 0-51.351-37.040-96.313-93.572-128.012-56.772-31.832-134.698-51.288-220.368-51.288s-163.599 19.456-220.368 51.288c-56.535 31.699-93.574 76.661-93.574 128.012 0 51.349 37.039 96.311 93.574 128.012z" />
<glyph unicode="&#xe92d;" d="M396.118 506.848c-5.69-5.512-8.014-10.751-8.014-15.511s2.324-10.001 8.014-15.513c5.713-5.533 14.367-10.859 25.669-15.491 22.571-9.247 54.264-15.137 89.652-15.137 35.39 0 67.083 5.891 89.652 15.137 11.303 4.632 19.959 9.958 25.672 15.491 5.69 5.512 8.014 10.753 8.014 15.513s-2.324 9.999-8.014 15.511c-5.713 5.535-14.369 10.859-25.672 15.491-22.569 9.247-54.262 15.137-89.652 15.137-35.388 0-67.081-5.891-89.652-15.137-11.303-4.632-19.957-9.956-25.669-15.491zM416.149 536.105c24.762 10.144 58.456 16.247 95.291 16.247s70.531-6.103 95.293-16.247c12.362-5.065 22.857-11.284 30.381-18.571 7.544-7.309 12.539-16.163 12.539-26.197 0-10.036-4.995-18.89-12.539-26.199-7.524-7.287-18.019-13.504-30.381-18.569-24.762-10.146-58.458-16.249-95.293-16.249s-70.529 6.103-95.291 16.249c-12.362 5.065-22.859 11.282-30.381 18.569-7.544 7.309-12.539 16.163-12.539 26.199 0 10.034 4.995 18.888 12.539 26.197 7.522 7.287 18.019 13.506 30.381 18.571z" />
<glyph unicode="&#xe92e;" d="M444.013 479.76c-19.407-4.969-34.225-11.818-43.022-19.241-3.139-2.649-7.832-2.25-10.481 0.889s-2.252 7.832 0.887 10.481c11.227 9.474 28.49 17.050 48.927 22.283 20.59 5.269 45.021 8.319 71.116 8.319 26.093 0 50.523-3.050 71.114-8.319 20.439-5.232 37.7-12.809 48.927-22.283 3.139-2.649 3.538-7.342 0.889-10.481-2.651-3.139-7.342-3.538-10.481-0.889-8.799 7.423-23.617 14.273-43.024 19.241-19.256 4.93-42.436 7.855-67.425 7.855-24.991 0-48.171-2.925-67.427-7.855z" />
<glyph unicode="&#xe92f;" d="M266.516 513.191c40.163 17.645 92.236 9.929 125.754-33.373 2.514-3.248 1.919-7.92-1.329-10.434s-7.92-1.919-10.434 1.329c-29.009 37.477-73.589 43.981-108.006 28.86-34.166-15.008-58.425-51.386-46.436-101.288 0.959-3.994-1.5-8.008-5.494-8.969s-8.010 1.5-8.971 5.494c-13.756 57.254 14.5 100.626 54.916 118.381z" />
<glyph unicode="&#xe930;" d="M377.431 555.923c-34.417-16.734-52.67-38.43-52.67-60.046 0-21.618 18.252-43.315 52.67-60.048 33.911-16.486 81.282-26.894 134.011-26.894s100.099 10.408 134.009 26.894c34.419 16.734 52.672 38.43 52.672 60.048 0 21.616-18.252 43.313-52.672 60.046-33.911 16.488-81.28 26.896-134.009 26.896s-100.101-10.408-134.011-26.896zM370.927 569.302c36.345 17.67 86.034 28.392 140.515 28.392s104.168-10.722 140.515-28.392c35.84-17.426 61.041-42.918 61.041-73.426s-25.201-56.001-61.041-73.426c-36.347-17.672-86.034-28.392-140.515-28.392s-104.17 10.72-140.515 28.392c-35.84 17.424-61.041 42.918-61.041 73.426s25.201 55.999 61.041 73.426z" />
<glyph unicode="&#xe931;" d="M327.347 572.662c-47.084-24.656-73.695-57.422-73.695-91.62s26.612-66.965 73.695-91.62c46.732-24.472 111.806-39.832 184.095-39.832 72.287 0 137.361 15.36 184.093 39.832 47.084 24.656 73.695 57.422 73.695 91.62s-26.612 66.965-73.695 91.62c-46.732 24.472-111.806 39.832-184.093 39.832-72.289 0-137.363-15.36-184.095-39.832zM320.447 585.841c49.26 25.796 116.799 41.528 190.995 41.528 74.194 0 141.733-15.732 190.993-41.528 48.909-25.612 81.671-62.29 81.671-104.8 0-42.507-32.762-79.187-81.671-104.8-49.26-25.796-116.799-41.528-190.993-41.528-74.196 0-141.735 15.732-190.995 41.528-48.909 25.612-81.671 62.292-81.671 104.8s32.762 79.187 81.671 104.8z" />
<glyph unicode="&#xe932;" d="M511.44 627.37c4.108 0 7.438-3.33 7.438-7.438v-124.877c0-4.108-3.33-7.438-7.438-7.438s-7.438 3.33-7.438 7.438v124.877c0 4.108 3.33 7.438 7.438 7.438z" />
<glyph unicode="&#xe933;" d="M511.44 445.198c4.108 0 7.438-3.33 7.438-7.438v-161.146c0-4.106-3.33-7.438-7.438-7.438s-7.438 3.332-7.438 7.438v161.146c0 4.108 3.33 7.438 7.438 7.438z" />
<glyph unicode="&#xe934;" d="M378.594 444.912c16.321 11.385 36.833 15.963 60.432 9.502 3.963-1.083 6.295-5.175 5.21-9.136-1.083-3.963-5.175-6.295-9.136-5.21-19.313 5.286-35.274 1.517-47.995-7.356-12.95-9.036-22.969-23.695-29.187-40.633-6.207-16.913-8.405-35.519-6.238-51.832 2.179-16.406 8.609-29.584 18.698-37.044 3.301-2.442 4-7.101 1.557-10.404s-7.101-4-10.404-1.557c-14.434 10.675-22.101 28.251-24.596 47.047-2.51 18.886 0.047 39.922 7.019 58.916 6.962 18.97 18.551 36.482 34.64 47.707z" />
<glyph unicode="&#xe935;" d="M441.101 579.622c17.749-25.862 21.878-64.295 2.389-97.793-2.064-3.552-6.618-4.756-10.168-2.69s-4.754 6.618-2.688 10.168c16.474 28.322 12.838 60.571-1.799 81.898-7.291 10.622-17.142 18.301-28.327 21.643-11.078 3.311-24.043 2.549-38.103-4.679-3.652-1.878-8.137-0.439-10.015 3.213-1.878 3.655-0.439 8.139 3.213 10.017 17.206 8.844 34.123 10.195 49.164 5.7 14.931-4.462 27.429-14.506 36.333-27.478z" />
<glyph unicode="&#xe936;" d="M756.364 513.191c40.418-17.755 68.673-61.127 54.916-118.381-0.959-3.994-4.975-6.455-8.969-5.494s-6.455 4.975-5.494 8.969c11.99 49.902-12.272 86.28-46.436 101.288-34.419 15.121-78.997 8.617-108.006-28.86-2.514-3.248-7.186-3.843-10.434-1.329-3.25 2.514-3.845 7.186-1.329 10.434 33.516 43.302 85.589 51.018 125.752 33.373z" />
<glyph unicode="&#xe937;" d="M635.775 432.712c-12.721 8.873-28.68 12.642-47.993 7.356-3.961-1.085-8.053 1.247-9.138 5.21-1.083 3.961 1.249 8.053 5.21 9.136 23.599 6.461 44.114 1.882 60.432-9.502 16.090-11.225 27.681-28.737 34.642-47.707 6.972-18.994 9.527-40.030 7.019-58.916-2.496-18.796-10.164-36.371-24.596-47.047-3.303-2.442-7.961-1.746-10.404 1.557s-1.746 7.961 1.557 10.404c10.087 7.46 16.519 20.637 18.696 37.044 2.167 16.312-0.029 34.918-6.236 51.832-6.218 16.938-16.237 31.597-29.189 40.633z" />
<glyph unicode="&#xe938;" d="M594.045 571.205c-14.636-21.326-18.273-53.575-1.799-81.898 2.066-3.55 0.863-8.102-2.688-10.168s-8.104-0.863-10.171 2.69c-19.487 33.498-15.358 71.931 2.391 97.793 8.903 12.973 21.402 23.016 36.333 27.478 15.039 4.495 31.959 3.144 49.162-5.7 3.655-1.878 5.093-6.363 3.215-10.017-1.878-3.652-6.363-5.091-10.015-3.213-14.060 7.227-27.025 7.99-38.103 4.679-11.184-3.342-21.036-11.021-28.327-21.643z" />
<glyph unicode="&#xe939;" d="M877.049 309.738c-11.728 67.441-85.771 121.797-177.906 132.533 8.376 10.401 13.402 22.816 14.072 36.239 0.67 16.439-5.026 32.545-16.417 44.96-3.685 4.027-8.041 7.718-12.732 10.737 50.591 18.454 89.121 54.691 98.835 93.948 7.37 29.526-0.67 58.382-22.111 78.513-30.489 28.521-83.424 34.896-138.371 17.114-57.291-18.454-99.841-58.382-108.217-101.331-1.006-5.367-1.676-11.072-1.676-16.441-25.463 6.375-53.27 6.712-80.743 1.343-11.726-2.348-22.783-5.705-33.839-9.731-3.685 8.725-9.382 16.441-16.752 22.481-17.422 15.098-41.209 19.797-65.667 13.422-34.174-9.061-61.982-39.928-66.337-73.145-0.335-3.356-0.67-6.375-0.67-9.731-7.037 0-14.072-1.006-21.443-2.684-38.864-9.731-72.033-44.625-80.409-85.225-5.696-28.184 0.67-56.369 17.422-77.172 15.747-19.46 39.534-30.532 65.331-30.532 26.469 0 53.273 12.080 73.039 32.21 13.067-19.46 32.163-35.231 54.946-45.632-9.382-10.737-15.078-23.822-16.417-37.915-3.687-37.915 24.122-72.808 63.991-79.52 4.691-0.67 9.046-1.341 13.737-1.341 16.752 0 33.169 5.367 46.235 15.434 15.411 12.080 25.128 29.191 26.802 48.316 0 0 6.032-13.42 16.417-30.869 23.789-40.598 71.698-73.481 132.006-87.571 21.107-5.034 42.548-7.383 63.991-7.383 55.952 0 106.543 17.447 138.371 47.31 28.813 27.178 41.209 63.414 34.509 101.664z" />
<glyph unicode="&#xe93a;" d="M620.135 730.859c56.365 18.24 112.523 12.308 145.735-18.759l0.010-0.010c23.511-22.072 32.226-53.734 24.239-85.736-9.684-39.098-45.199-74.161-91.357-94.28 1.222-1.159 2.395-2.353 3.516-3.577 12.746-13.89 19.117-31.922 18.369-50.293l-0.004-0.067c-0.538-10.796-3.587-20.979-8.68-30.125 88.428-14.085 160.425-68.060 172.412-136.995 0.002-0.002 0.002-0.004 0.002-0.004l-7.317-1.273 7.315 1.282c0-0.002 0-0.002 0-0.004 7.146-40.792-6.16-79.518-36.731-108.356l-0.014-0.012c-33.549-31.476-86.145-49.324-143.46-49.324-21.98 0-43.997 2.408-65.697 7.581 0.004-0.002 0.008-0.002 0.014-0.004l1.692 7.244-1.725-7.235c0.006-0.002 0.012-0.004 0.018-0.004-61.777 14.438-111.649 48.287-136.703 91.032 0.004-0.008 0.008-0.016 0.012-0.025l6.391 3.804-6.416-3.759c0.004-0.008 0.008-0.014 0.012-0.020-2.831 4.754-5.345 9.216-7.507 13.204 2.596 6.571 4.27 13.547 4.903 20.797l-7.409 0.648 6.786 3.047 0.008-0.020 0.045-0.098c0.043-0.092 0.106-0.233 0.194-0.421 0.174-0.378 0.437-0.944 0.789-1.684 0.703-1.48 1.754-3.644 3.127-6.352 2.745-5.418 6.769-12.983 11.859-21.535l0.027-0.045c22.524-38.44 68.459-70.345 127.281-84.091l0.033-0.008c20.507-4.889 41.369-7.178 62.266-7.178 54.581 0 103.162 17.044 133.271 45.287-0.002-0.002-0.002-0.002-0.004-0.004l5.104-5.41-5.089 5.425c-0.004-0.004-0.006-0.008-0.010-0.010 27.051 25.518 38.536 59.261 32.282 94.966l-0.002 0.010c-10.929 62.863-80.996 115.88-171.437 126.42-2.69 0.313-4.997 2.064-6.023 4.57-1.024 2.508-0.607 5.373 1.091 7.483 7.45 9.251 11.84 20.171 12.435 31.905-0.002-0.010-0.002-0.020-0.002-0.031l7.432-0.302-7.428 0.37c-0.002-0.012-0.002-0.025-0.002-0.037 0.583 14.502-4.437 28.668-14.467 39.599l-0.006 0.006c-3.258 3.558-7.123 6.835-11.272 9.504-2.375 1.531-3.679 4.272-3.366 7.080 0.315 2.806 2.191 5.194 4.844 6.162 49.177 17.937 85.243 52.702 94.165 88.747l0.004 0.014c6.751 27.047-0.611 53.091-19.977 71.281l5.071 5.422-5.081-5.414c0.002-0.002 0.006-0.006 0.010-0.008-27.765 25.97-77.474 32.79-131 15.466l-0.008-0.002c-55.787-17.97-95.508-56.326-103.193-95.647 0.002 0.010 0.004 0.018 0.006 0.029l-7.311 1.367 7.301-1.423c0 0.008 0.002 0.018 0.004 0.027-0.942-5.044-1.543-10.265-1.543-15.045 0-2.289-1.055-4.454-2.861-5.862-1.805-1.41-4.159-1.909-6.383-1.353-24.296 6.085-50.987 6.438-77.493 1.261 0.006 0.002 0.010 0.002 0.016 0.004l-1.459 7.289 1.427-7.295c0.004 0 0.010 0.002 0.016 0.002-11.26-2.256-21.939-5.49-32.737-9.422-3.722-1.355-7.855 0.446-9.396 4.094-3.227 7.638-8.2 14.367-14.616 19.622-0.051 0.045-0.104 0.088-0.155 0.133-15.323 13.279-36.494 17.686-58.906 11.849 0.004 0.002 0.010 0.002 0.014 0.004l-1.905 7.19 1.876-7.199c0.004 0.002 0.008 0.002 0.014 0.004-31.384-8.327-56.851-36.799-60.839-66.807 0.004 0.039 0.008 0.078 0.012 0.117l-7.401 0.74 7.374-0.967c0.004 0.037 0.008 0.074 0.014 0.11-0.022-0.225-0.045-0.446-0.067-0.662-0.311-3.099-0.554-5.529-0.554-8.212 0-4.108-3.33-7.438-7.438-7.438-6.299 0-12.736-0.897-19.714-2.481 0.027 0.006 0.051 0.014 0.078 0.020l-1.807 7.215 1.651-7.252c0.025 0.004 0.051 0.010 0.078 0.016-35.975-9.042-67.035-41.628-74.851-79.475 0.001 0.004 0.002 0.008 0.003 0.012l-7.287 1.474 7.281-1.502c0.001 0.004 0.002 0.010 0.003 0.016-5.291-26.201 0.68-52.085 15.926-71.018-0.003 0.004-0.006 0.008-0.009 0.010l-5.778-4.674 5.789 4.662c-0.001 0-0.001 0-0.002 0.002 14.277-17.637 35.898-27.762 59.54-27.762 24.259 0 49.207 11.117 67.731 29.984 1.568 1.594 3.769 2.402 5.995 2.195s4.241-1.404 5.488-3.26c12.235-18.224 30.217-33.132 51.86-43.012 2.136-0.977 3.687-2.904 4.182-5.2s-0.125-4.691-1.67-6.461c-8.374-9.584-13.424-21.212-14.614-33.725l-0.002-0.016c-3.274-33.698 21.461-65.301 57.736-71.451-0.031 0.004-0.061 0.010-0.092 0.014l-1.055-7.364 1.235 7.336c-0.029 0.004-0.059 0.010-0.088 0.014 0.215-0.031 0.427-0.061 0.638-0.092 4.497-0.644 8.106-1.161 11.953-1.161 15.178 0 29.97 4.865 41.669 13.868-0.008-0.006-0.014-0.012-0.022-0.018l4.589-5.854-4.54 5.893c-0.008-0.006-0.018-0.014-0.027-0.020 13.884 10.892 22.475 26.16 23.959 43.094 0.296 3.372 2.831 6.119 6.171 6.684 3.338 0.564 6.635-1.196 8.022-4.284 0 0 0.002 0-6.784-3.050-6.784-3.047-6.784-3.050-6.784-3.050l0.002-0.002v-0.004l0.006-0.010 0.016-0.039 0.061-0.133c0.051-0.114 0.127-0.278 0.225-0.491 0.196-0.425 0.484-1.042 0.86-1.833 0.752-1.584 1.858-3.863 3.293-6.692 1.331-2.626 2.945-5.729 4.826-9.191-5.038-12.746-13.553-23.973-24.719-32.725l-0.051-0.039c-14.428-11.115-32.459-16.979-50.773-16.979-4.95 0-9.551 0.662-13.819 1.277-0.327 0.047-0.65 0.094-0.971 0.139-0.061 0.008-0.121 0.018-0.182 0.029-43.413 7.307-74.249 45.465-70.161 87.567 0-0.004 0-0.006 0-0.008l7.405-0.705-7.403 0.719c-0.002-0.002-0.002-0.004-0.002-0.006 1.19 12.488 5.461 24.263 12.407 34.546 2.72-1.447 5.496-2.819 8.325-4.11l3.090 6.765-5.602 4.895c-2.107-2.412-4.047-4.932-5.813-7.55-17.602 9.371-32.852 21.968-44.584 37.058 2.189 1.923 4.311 3.932 6.359 6.019l-5.306 5.21-6.175-4.145c1.623-2.418 3.332-4.781 5.122-7.084-20.241-17.798-46.107-28.419-71.987-28.419-27.948 0-53.897 12.014-71.113 33.291l-0.011 0.014c-18.255 22.669-25.015 53.146-18.919 83.31l0.006 0.029c8.936 43.317 44.171 80.493 85.887 90.938 0.051 0.012 0.104 0.025 0.155 0.037 5.375 1.224 10.692 2.132 16.034 2.573-0.208-2.25-0.378-4.613-0.378-7.141h7.438v7.438c-2.365 0-4.715-0.102-7.060-0.296 0.078 0.834 0.159 1.654 0.241 2.459 0.029 0.292 0.059 0.58 0.088 0.869 0.006 0.076 0.016 0.153 0.025 0.229 4.77 36.38 34.888 69.581 71.807 79.367l0.031 0.008c26.463 6.898 52.825 1.931 72.336-14.931-0.027 0.022-0.053 0.043-0.080 0.065l-4.713-5.754 4.871 5.621c-0.025 0.022-0.051 0.045-0.078 0.067 6.455-5.306 11.757-11.744 15.74-18.951-2.115-0.719-4.223-1.463-6.326-2.228l2.545-6.99 6.851 2.896c-0.914 2.162-1.94 4.274-3.070 6.322 9.259 3.148 18.675 5.819 28.596 7.806l0.035 0.008c25.355 4.954 51.096 5.239 75.251 0.515-0.327-3.050-0.519-6.134-0.519-9.159h7.438l1.807 7.215c-2.882 0.724-5.792 1.369-8.725 1.944 0.317 2.945 0.76 5.858 1.284 8.652l0.010 0.055c9.081 46.562 54.452 88.048 113.233 106.984zM620.135 730.859c-0.002-0.002-0.004-0.002-0.006-0.002l2.291-7.076-2.281 7.078c-0.002 0-0.002 0-0.004 0z" />
<glyph unicode="&#xe93b;" d="M354.727 567.42c-1.676-15.098-16.752-30.197-33.169-33.218-15.413-3.019-26.133 6.040-24.124 20.133 1.676 13.758 15.078 28.184 30.489 32.21 16.417 4.362 28.478-4.027 26.804-19.125z" />
<glyph unicode="&#xe93c;" d="M343.811 578.209c-2.563 1.815-7.24 2.937-13.978 1.147l-0.029-0.008c-6.177-1.613-12.198-5.404-16.86-10.357-4.697-4.991-7.526-10.632-8.125-15.556-0.006-0.051-0.014-0.1-0.020-0.151-0.697-4.879 0.834-7.965 2.941-9.731 2.238-1.876 6.326-3.24 12.388-2.052l0.084 0.016c6.51 1.198 13.065 4.883 18.195 10.019 5.159 5.167 8.321 11.233 8.928 16.703 0.587 5.298-1.21 8.333-3.524 9.97zM352.407 590.35c7.403-5.241 10.798-13.95 9.711-23.75-1.067-9.629-6.283-18.661-13.185-25.573-6.921-6.933-16.096-12.302-25.986-14.132-9.335-1.819-18.297-0.159-24.76 5.255-6.585 5.517-9.414 13.974-8.125 23.16 1.091 8.805 5.792 17.228 12.049 23.877 6.308 6.702 14.688 12.137 23.918 14.551 9.674 2.567 19.229 1.674 26.379-3.387z" />
<glyph unicode="&#xe93d;" d="M443.173 290.611c-1.339-13.085-15.076-21.809-30.152-19.125-14.743 2.686-25.128 14.428-23.789 26.843 1.341 12.080 13.737 20.803 28.145 19.125 15.411-2.013 27.137-13.756 25.796-26.843z" />
<glyph unicode="&#xe93e;" d="M396.627 297.519c-0.799-7.464 5.664-16.513 17.713-18.712 12.012-2.132 20.652 4.909 21.435 12.562 0.793 7.742-6.453 17.001-19.309 18.704-11.293 1.292-19.053-5.535-19.838-12.554zM381.842 299.148c1.899 17.126 18.908 27.73 36.396 25.694 0.033-0.004 0.067-0.008 0.102-0.012 17.935-2.344 34.121-16.556 32.235-34.975-1.897-18.516-20.725-28.919-38.857-25.69l-0.029 0.004c-17.42 3.172-31.724 17.598-29.851 34.959l0.004 0.020z" />
<glyph unicode="&#xe93f;" d="M664.633 480.856c-0.333-8.725-10.385-15.1-21.776-14.093-11.058 1.006-19.434 8.723-19.098 16.776 0.335 8.388 9.382 14.428 20.437 14.093 11.728-0.672 21.107-8.053 20.437-16.776z" />
<glyph unicode="&#xe940;" d="M634.152 487.713c-2.169-1.48-2.906-3.101-2.962-4.47v-0.014c-0.051-1.257 0.572-3.186 2.796-5.169 2.179-1.944 5.512-3.522 9.535-3.89 4.19-0.368 7.873 0.656 10.346 2.246s3.283 3.364 3.334 4.723c0.004 0.096 0.010 0.19 0.016 0.284 0.1 1.308-0.47 3.141-2.835 5.059-2.359 1.911-6.058 3.442-10.512 3.718-4.133 0.106-7.524-0.987-9.719-2.487zM625.764 499.999c5.157 3.522 11.781 5.275 18.659 5.067 0.065-0.002 0.133-0.006 0.198-0.008 7.229-0.415 14.046-2.9 19.125-7.017 5.057-4.096 8.826-10.26 8.315-17.614-0.333-7.297-4.697-13.018-10.146-16.523-5.482-3.526-12.515-5.185-19.714-4.55l-0.018 0.002c-7.031 0.64-13.41 3.424-18.097 7.601-4.644 4.139-8.039 10.093-7.759 16.885 0.282 7.015 4.235 12.605 9.437 16.157z" />
<glyph unicode="&#xe941;" d="M683.732 394.963c-22.446 1.678-43.554 0-61.982-4.362-21.443-5.034-43.889-2.013-58.632 7.716-15.411 10.401-20.102 26.507-11.056 40.6 8.041 12.75 13.067 26.505 14.072 40.933 1.339 17.784-4.022 33.888-14.072 46.975-7.035 9.059-2.346 22.144 10.385 31.54l0.67 0.67c11.393 8.388 27.474 13.085 41.545 11.744 13.067-1.343 28.813-0.337 45.9 4.027 41.545 10.401 78.063 37.915 85.1 65.092 9.715 39.255-41.545 56.032-98.502 37.577-39.533-12.75-70.693-39.928-75.382-64.42-1.341-6.71-0.67-12.415 1.339-17.784 3.35-8.723-1.004-19.46-12.396-28.184l-1.006-0.67c-12.729-9.731-30.152-13.422-42.213-9.396-19.769 6.040-42.885 7.383-66.672 2.684-44.561-8.723-81.415-35.901-98.502-67.106-7.035-12.75-20.772-21.809-34.172-23.151-11.728-1.006-21.443 3.691-25.798 12.75-7.37 15.771-24.122 23.489-43.221 18.79-21.443-5.367-39.869-25.5-44.56-47.981-5.361-26.841 10.050-49.322 35.178-49.322 17.758 0 35.18 11.072 46.235 27.513 6.702 10.066 17.758 16.776 29.819 17.447 13.402 1.008 25.463-6.038 29.819-18.117 10.385-30.199 42.55-53.35 87.78-55.026 19.431-0.672 38.865 2.684 57.291 9.059 17.087 6.375 38.195 3.691 52.6-6.71l0.67-0.337c13.402-9.729 18.428-24.492 12.061-37.915-4.020-8.051-6.030-17.112-5.694-26.505 0.67-40.6 45.565-82.541 110.897-97.64 95.485-22.144 189.965 18.119 178.239 86.566-9.046 48.653-74.043 87.573-145.741 92.943z" />
<glyph unicode="&#xe942;" d="M738.656 668.918c5.553-8.728 7.082-19.27 4.227-30.808l-0.008-0.039-0.010-0.037c-4.102-15.846-16.421-30.798-32.304-42.891-16.028-12.204-36.463-22.111-58.174-27.548-17.839-4.554-34.452-5.653-48.453-4.219-11.983 1.136-26.009-2.861-35.965-10.011l-0.652-0.654-0.452-0.331c-5.47-4.037-8.695-8.501-9.974-12.292-1.218-3.605-0.703-6.449 1.046-8.701l0.025-0.033c11.103-14.455 17.069-32.347 15.591-52.040-1.108-15.84-6.618-30.761-15.199-44.365l-0.016-0.027-0.016-0.025c-3.442-5.361-4.106-10.739-2.735-15.675 1.402-5.048 5.134-10.305 11.661-14.72 12.652-8.333 32.868-11.34 52.794-6.665 19.229 4.552 41.103 6.271 64.246 4.542 36.944-2.767 72.301-14.175 99.755-31.352 27.323-17.097 47.699-40.514 52.743-67.647l0.010-0.053 0.008-0.051c6.635-38.732-17.244-68.577-53.109-85.256-35.83-16.662-85.053-21.197-134.142-9.813-33.723 7.795-62.454 22.573-82.981 40.964-20.423 18.297-33.267 40.721-33.671 63.727-0.366 10.579 1.897 20.819 6.438 29.947 4.39 9.326 1.517 20.225-9.269 28.302l-0.638 0.319-0.486 0.352c-12.325 8.899-30.81 11.307-45.647 5.772l-0.084-0.031-0.084-0.029c-19.182-6.637-39.525-10.171-59.981-9.463h-0.018c-47.515 1.762-82.885 26.248-94.517 59.983-3.099 8.523-11.769 13.966-22.248 13.179l-0.072-0.006-0.074-0.004c-9.566-0.531-18.549-5.893-24.038-14.142l-0.010-0.016-0.010-0.014c-12.071-17.95-31.583-30.8-52.408-30.8-14.959 0-27.372 6.78-35.102 17.749-7.655 10.865-10.392 25.332-7.37 40.467l0.013 0.063c5.226 25.046 25.611 47.562 50.034 53.675l0.016 0.004 0.014 0.004c22.146 5.447 42.671-3.522 51.715-22.82 2.71-5.606 9.014-9.324 18.391-8.535 10.853 1.108 22.448 8.654 28.343 19.327 18.268 33.353 57.119 61.722 103.585 70.822 24.926 4.922 49.285 3.546 70.28-2.87l0.092-0.027 0.090-0.031c9.208-3.074 24.096-0.347 35.343 8.249l0.188 0.143 0.995 0.664c10.005 7.74 11.419 15.231 9.79 19.472l-0.010 0.029-0.012 0.029c-2.475 6.612-3.287 13.713-1.674 21.819 2.796 14.544 13.116 28.825 27.076 40.827 14.119 12.139 32.678 22.587 53.326 29.246 29.516 9.561 58.343 10.287 79.073 2.763 10.42-3.781 19.252-9.833 24.703-18.401zM708.878 673.337c-16.711 6.064-41.988 5.954-69.424-2.935l-0.010-0.004c-18.888-6.091-35.674-15.605-48.191-26.369-12.666-10.888-20.265-22.434-22.168-32.374l-0.012-0.057c-1.057-5.294-0.531-9.584 1.004-13.694 4.061-10.62 0.123-21.717-8.163-30.675 12.476 8.024 28.774 12.353 43.458 10.953l0.053-0.004c12.12-1.247 26.986-0.331 43.3 3.832l0.016 0.006 0.016 0.004c19.828 4.963 38.419 14.013 52.792 24.956 14.504 11.045 23.959 23.423 26.904 34.747 1.989 8.071 0.754 14.336-2.346 19.211-3.209 5.040-8.93 9.39-17.228 12.402zM551.225 558.357c-13.892-9.288-32.102-13.010-45.98-8.423-18.52 5.643-40.361 6.941-62.973 2.475l-0.012-0.002c-42.648-8.349-77.499-34.328-93.407-63.378l-0.012-0.022c-8.167-14.804-24.014-25.363-39.944-26.959l-0.051-0.004-0.053-0.004c-14.029-1.206-27.135 4.452-33.138 16.938l-0.016 0.035-0.018 0.037c-5.707 12.208-18.665 18.657-34.689 14.722-18.446-4.625-34.9-22.354-39.064-42.25-2.328-11.695-0.039-21.878 4.95-28.956 4.918-6.98 12.774-11.442 22.941-11.442 14.686 0 30.015 9.29 40.055 24.212 7.898 11.855 20.993 19.902 35.515 20.733 16.276 1.194 31.681-7.432 37.299-23.019l0.018-0.051 0.018-0.053c9.161-26.63 38.105-48.42 81.023-50.012 18.375-0.632 36.86 2.534 54.503 8.627 19.125 7.101 42.52 4.266 58.961-7.319l0.699-0.35 0.493-0.36c15.609-11.333 22.651-29.751 14.412-47.12l-0.031-0.067-0.035-0.067c-3.462-6.937-5.208-14.763-4.918-22.92l0.004-0.069v-0.072c0.29-17.569 10.224-36.388 28.727-52.966 18.422-16.505 44.801-30.244 76.41-37.549l0.004-0.002c46.399-10.759 92.158-6.236 124.507 8.809 32.296 15.021 49.792 39.511 44.731 69.205-4.018 21.498-20.658 41.847-46 57.704-25.23 15.787-58.219 26.526-92.973 29.128-21.751 1.625-42.090-0.010-59.715-4.182l-0.012-0.004c-22.941-5.384-47.597-2.359-64.428 8.75l-0.033 0.022-0.031 0.020c-8.866 5.983-15.174 13.97-17.706 23.090-2.563 9.228-1.057 18.941 4.531 27.662 7.491 11.883 12.024 24.464 12.93 37.463l0.002 0.020 0.002 0.022c1.196 15.859-3.556 30.164-12.546 41.874-5.271 6.802-5.923 15.023-3.377 22.565 1.633 4.834 4.558 9.416 8.429 13.508z" />
<glyph unicode="&#xe943;" d="M659.944 675.796c8.711 2.684 17.755 4.362 27.137 4.027 9.382-0.337 19.098-2.35 27.809-8.725 4.020-3.019 7.706-7.381 9.715-12.077 2.011-5.034 2.682-10.066 2.346-15.1-0.67-10.064-4.691-18.788-9.717-26.17-0.335-0.67-1.341-0.67-1.676-0.335s-0.668 1.006-0.668 1.341c2.344 8.725 4.354 17.114 3.685 25.165-0.335 8.053-3.685 14.765-10.052 19.127-3.015 2.348-6.7 4.027-10.385 5.367-3.687 1.343-8.043 2.348-12.063 3.021-8.376 1.341-17.085 1.676-26.131 2.013-0.67 0-1.341 0.67-1.341 1.341 0.335 0.335 0.67 0.672 1.341 1.008z" />
<glyph unicode="&#xe944;" d="M668.656 223.836c-7.372-0.67-14.743 0-22.113 1.343s-14.408 3.356-21.107 6.040c-6.7 2.684-13.402 5.705-19.767 9.731-6.367 3.689-12.396 8.051-17.422 13.42-0.335 0.67-0.335 1.343 0 1.678s1.006 0.335 1.341 0.335c6.7-2.684 13.065-5.369 19.767-8.053 6.365-2.684 13.067-5.367 19.431-7.718 6.367-2.684 13.067-4.697 19.767-7.381 6.702-2.348 13.402-4.697 20.104-7.045 0.668-0.337 1.004-1.008 0.668-1.678 0.335-0.335 0-0.672-0.668-0.672z" />
<glyph unicode="&#xe945;" d="M239.471 495.95c6.367 1.678 13.067 2.348 20.102-0.335 3.352-1.341 6.702-3.354 9.382-6.040 2.682-2.684 4.356-5.367 6.367-8.053 3.35-5.367 6.030-9.394 10.050-12.413 4.356-3.021 10.052-4.699 15.746-6.712 0.67-0.335 1.006-1.006 0.67-1.676 0-0.337-0.67-0.672-1.006-1.008-6.365-1.006-13.4-1.006-19.767 2.013-1.674 1.006-3.35 1.678-4.691 2.684l-2.009 1.678c-0.67 0.67-1.341 1.343-2.011 2.013-2.344 2.684-4.356 5.369-6.030 8.053-3.35 5.367-6.032 9.059-10.387 11.742-4.356 2.686-10.385 3.691-16.417 5.369-0.67 0.335-1.006 1.008-1.006 1.678 0.335 0.67 0.67 1.006 1.006 1.006z" />
<glyph unicode="&#xe946;" d="M425.083 548.961c5.361 3.019 11.393 5.032 17.422 6.375 6.032 1.343 12.061 2.013 18.428 2.013 6.030 0 12.396-0.335 18.426-1.343 6.032-1.006 12.061-2.684 17.758-5.367 0.67-0.335 1.006-1.008 0.67-1.678-0.335-0.335-0.67-0.67-1.006-0.67-6.030-0.335-12.061-0.335-17.758-0.335l-17.755-0.672-17.422-0.335c-6.032 0-11.726-0.335-17.758-0.335-0.67 0-1.341 0.67-1.341 1.343-0.333 0.335 0 0.67 0.335 1.006z" />
<glyph unicode="&#xe947;" d="M563.453 386.907c-6.032 0.672-11.728 3.021-17.087 6.712-5.026 3.689-9.717 8.723-12.061 15.434-2.011 6.71-1.676 13.758 0.67 19.46 2.009 6.040 5.694 11.074 10.050 15.098 0.67 0.337 1.341 0.337 1.676 0 0.335-0.335 0.335-0.67 0.335-1.341-1.676-5.705-3.352-10.737-4.020-16.106-0.67-5.032-0.67-10.066 1.004-14.428 1.341-4.362 4.356-8.388 7.706-12.080 3.687-3.689 8.043-7.045 12.732-10.737 0.67-0.335 0.67-1.341 0.335-1.676-0.335-0.337-1.004-0.337-1.339-0.337z" />
<glyph unicode="&#xe948;" d="M711.876 375.496c15.078-1.006 29.819-4.697 43.891-11.072 13.735-6.375 26.802-15.098 37.189-26.843 5.026-6.040 9.715-12.415 13.067-19.46 3.35-7.045 5.694-14.763 6.365-22.816 1.676-15.769-2.68-31.54-10.72-44.29-0.335-0.67-1.006-0.67-1.676-0.335s-0.67 1.006-0.335 1.678c5.026 13.756 7.37 28.184 4.691 41.941-2.344 13.756-9.382 26.17-18.428 36.572-4.689 5.369-9.715 10.066-15.411 14.428-5.694 4.362-11.726 8.053-17.758 11.744-12.732 7.045-26.131 12.077-40.539 16.104-0.67 0.335-1.006 1.008-1.006 1.678-0.668 0.335 0 0.67 0.67 0.67z" />
<glyph unicode="&#xe949;" d="M756.855 401.335c-14.557 3.252-29.116 0.813-41.246-6.099-5.257 16.67-17.39 30.495-34.372 37.408-26.689 10.571-56.614 0.405-71.578-23.989-11.726-19.517-34.777-29.277-57.017-25.21-29.52 5.692-48.527 34.561-42.865 64.242s34.372 48.792 63.893 43.1c9.3-2.034 17.792-6.099 25.071-12.198 21.030-19.517 52.976-21.144 75.621-3.252 11.323 8.537 18.197 20.735 21.432 33.747 3.64 0 7.683 0.407 11.728 1.22 25.071 4.879 44.077 25.21 47.312 50.824 8.492 69.53-12.94 133.365-60.252 179.312-60.659 58.144-157.71 82.946-260.020 66.682-28.308-4.473-48.931-28.869-49.336-57.332-0.405-18.297 7.683-34.561 20.623-45.945-84.516-26.837-154.475-106.124-177.119-203.709-27.095-117.507 16.578-231.761 119.293-313.082 13.749-10.978 31.137-14.638 47.312-11.385-1.212-3.661-2.426-7.726-3.233-11.791-4.854-30.088 14.557-59.363 44.482-66.683 36.394-8.946 71.576-13.012 103.927-13.012 64.702 0 119.698 17.077 163.777 50.419 60.255 45.945 94.222 117.507 97.86 206.96 1.619 28.461-17.792 53.671-45.291 59.77z" />
<glyph unicode="&#xe94a;" d="M433.395 814.469c104.002 16.532 203.598-8.525 266.332-68.659l0.035-0.035c49.101-47.68 71.208-113.879 62.454-185.548l-0.004-0.031c-3.632-28.77-25.009-51.68-53.242-57.189-2.51-0.503-5.034-0.871-7.501-1.096-4.024-12.333-11.289-23.938-22.563-32.463-25.522-20.112-61.434-18.262-85.078 3.552-6.265 5.212-13.574 8.719-21.657 10.5-25.51 4.871-50.215-11.656-55.090-37.207-4.916-25.77 11.589-50.632 36.931-55.539 19.335-3.52 39.223 5.008 49.271 21.731l0.018 0.029 0.016 0.029c16.834 27.446 50.573 38.932 80.657 27.016l0.033-0.012 0.031-0.014c16.329-6.645 28.67-18.982 35.597-34.092 11.961 4.856 25.418 6.152 38.836 3.156 30.998-6.88 52.898-35.278 51.104-67.39-3.724-91.208-38.462-164.995-100.779-212.516l-0.012-0.008-0.012-0.010c-45.567-34.466-102.208-51.924-168.263-51.924-32.962 0-68.737 4.141-105.695 13.224-33.665 8.233-55.531 41.15-50.057 75.091l0.022 0.135 0.025 0.133c0.119 0.593 0.245 1.183 0.376 1.772-14.675-0.294-29.51 4.331-41.788 14.13-104.703 82.903-149.72 199.972-121.911 320.577l0.002 0.010c22.174 95.557 88.763 174.385 171.006 205.268-9.443 11.752-15.053 26.557-14.7 42.84 0.468 31.986 23.658 59.491 55.607 64.541zM689.414 735.090c-58.583 56.14-153.081 80.681-253.686 64.688l-0.006-0.001c-24.654-3.895-42.706-25.167-43.059-50.089v-0.031l-0.002-0.029c-0.352-15.902 6.651-30.123 18.101-40.198l9.878-8.691-12.539-3.982c-81.718-25.947-149.999-102.954-172.126-198.296-26.377-114.404 15.949-225.838 116.664-305.575l0.012-0.010 0.012-0.008c11.953-9.545 27.084-12.746 41.205-9.907l12.556 2.526-4.029-12.157c-1.157-3.487-2.25-7.176-2.974-10.769-4.153-26.189 12.789-51.748 38.926-58.139l0.010-0.002c35.83-8.807 70.415-12.797 102.151-12.797 63.341 0 116.689 16.695 159.276 48.903 58.17 44.361 91.363 113.674 94.93 201.34l0.004 0.061 0.002 0.059c1.408 24.784-15.501 46.769-39.476 52.087l-0.010 0.002c-12.723 2.843-25.394 0.709-35.944-5.302l-8.004-4.562-2.772 8.787c-4.613 14.632-15.213 26.693-30.052 32.743-23.278 9.202-49.356 0.368-62.448-20.95-13.406-22.281-39.589-33.256-64.712-28.664l-0.069 0.012c-33.678 6.496-55.169 39.36-48.764 72.941 6.444 33.782 39.108 55.47 72.608 49.009l0.090-0.016 0.090-0.020c10.424-2.279 20.020-6.859 28.261-13.764l0.143-0.121 0.139-0.129c18.393-17.071 46.237-18.44 65.949-2.868l0.065 0.051 0.067 0.051c9.704 7.319 15.785 17.905 18.694 29.604l1.402 5.643h5.815c3.113 0 6.665 0.352 10.26 1.073l0.022 0.006 0.025 0.004c21.892 4.26 38.511 21.997 41.352 44.443 8.225 67.373-12.527 128.836-58.039 173.042z" />
<glyph unicode="&#xe94b;" d="M638.371 521.695c-42.46 54.891 30.732 96.364 57.826 46.352 16.58 136.617-115.25 202.894-252.335 180.937 93.413-17.484 126.167-113.848 17.792-192.322-28.711-20.738-71.173-27.243-82.494 4.065-16.985 46.759 58.636 90.672 58.636 90.672-145.984-31.715-241.419-269.169-53.379-417.986-67.128 83.76-14.154 165.894 36.799 121.574 17.388-15.045 18.197-48.792 29.116-75.629 11.323-27.241 35.991-56.923 80.068-64.649-29.52 43.1 14.963 86.2 54.188 58.145 46.505-33.342-9.704-128.080-134.661-118.322 193.702-46.352 287.519 52.044 293.586 189.070-32.351-77.254-119.7-26.837-84.518 34.154-23.859-39.439-70.766-61.397-118.486-52.044-61.062 12.198-101.096 71.968-88.963 133.365 12.131 61.397 71.576 101.65 132.638 89.452 21.432-4.065 39.629-13.418 54.188-26.835z" />
<glyph unicode="&#xe94c;" d="M631.679 724.237c50.293-32.365 80.553-85.801 71.903-157.085-0.39-3.215-2.814-5.807-5.995-6.412s-6.387 0.918-7.928 3.765c-5.844 10.784-13.803 16.096-21.555 17.866-7.902 1.807-16.18 0.072-22.761-4.339-6.538-4.384-11.244-11.295-12.276-19.801-1.028-8.474 1.49-19.45 11.186-31.985 2.367-3.058 1.995-7.417-0.854-10.032s-7.225-2.608-10.068 0.012c-13.518 12.458-30.442 21.185-50.534 24.997l-0.072 0.014c-56.964 11.378-112.538-26.176-123.884-83.6-11.338-57.377 26.086-113.231 83.114-124.63 44.6-8.734 88.409 11.793 110.676 48.6 2.109 3.489 6.637 4.627 10.146 2.553 3.511-2.073 4.697-6.588 2.659-10.119-15.403-26.704-3.916-49.822 13.776-58.529 8.94-4.398 19.53-5.173 29.586-0.895 10.034 4.268 20.341 13.923 27.852 31.861 1.392 3.323 4.969 5.173 8.486 4.384s5.964-3.986 5.805-7.587c-3.101-70.049-28.707-131.309-79.426-168.946-50.748-37.657-125.11-50.53-223.32-27.029-3.775 0.903-6.22 4.558-5.615 8.392s4.055 6.559 7.926 6.256c60.541-4.728 103.43 15.902 125.508 40.545 11.090 12.38 16.719 25.49 17.294 36.813 0.562 11.060-3.622 20.735-13.048 27.499-16.684 11.932-33.502 8.441-43.221-1.531-9.676-9.929-13.412-27.513-0.503-46.36 1.69-2.471 1.737-5.713 0.117-8.229-1.619-2.518-4.591-3.818-7.538-3.301-47.192 8.272-73.62 40.169-85.652 69.121l-0.022 0.051c-4.118 10.128-6.939 21.447-9.525 31.822-0.979 3.926-1.923 7.716-2.89 11.254-3.749 13.698-7.857 23.83-14.677 29.731l-0.014 0.012c-11.368 9.888-21.811 11.928-29.996 9.878-8.341-2.089-16.073-8.852-20.997-20.022-9.823-22.291-7.432-60.849 24.878-101.165 2.367-2.953 2.14-7.211-0.527-9.895s-6.925-2.937-9.893-0.589c-192.881 152.648-95.806 398.015 56.416 431.086 3.579 0.779 7.19-1.165 8.515-4.578 1.322-3.411-0.033-7.28-3.197-9.12h-0.004v-0.002l-0.027-0.014-0.131-0.078c-0.123-0.074-0.315-0.188-0.568-0.341-0.509-0.307-1.267-0.775-2.238-1.39-1.942-1.235-4.721-3.060-8.014-5.4-6.608-4.695-15.176-11.376-23.178-19.399-16.615-16.654-28.069-36.232-21.224-55.077l0.004-0.010c2.254-6.234 5.901-10.283 10.346-12.844 4.564-2.631 10.41-3.932 17.24-3.8 13.786 0.27 30.144 6.389 43.558 16.077 52.89 38.301 69.446 79.488 63.803 111.72-5.641 32.224-34.058 58.924-78.609 67.261-3.554 0.666-6.115 3.794-6.068 7.409s2.69 6.675 6.261 7.247c69.906 11.197 139.092 0.020 188.994-32.092zM395.329 627.314c-103.682-57.745-159.744-227.71-42.105-355.048-10.624 28.006-9.872 53.955-1.496 72.964 6.301 14.295 17.169 24.989 30.994 28.453 13.976 3.501 29.261-0.811 43.366-13.075 10.563-9.144 15.552-23.405 19.286-37.050 1.165-4.26 2.218-8.484 3.256-12.656 2.483-9.974 4.891-19.638 8.58-28.713 9.214-22.156 27.687-45.761 59.181-56.302-6.665 19.168-1.84 37.626 9.995 49.769 14.949 15.338 39.985 19.37 62.527 3.246l0.006-0.004c13.821-9.909 20.047-24.576 19.245-40.349-0.789-15.513-8.302-31.73-21.071-45.982-16.18-18.060-41.14-33.428-73.542-41.046 64.344-5.429 113.619 8.427 149.097 34.753 39.043 28.972 62.474 73.859 70.548 127.575-5.69-5.827-11.963-10.109-18.577-12.924-14.32-6.091-29.434-4.934-41.978 1.239-16.535 8.137-28.5 24.901-29.259 45.123-27.276-24.678-65.548-36.47-104.305-28.874l-0.027 0.004c-65.090 13.003-107.731 76.686-94.805 142.101 12.913 65.356 76.207 108.305 141.355 95.312 12.137-2.306 23.335-6.218 33.508-11.546-1.179 5.427-1.423 10.7-0.811 15.738 1.596 13.146 8.922 23.771 18.761 30.364 9.794 6.567 22.242 9.255 34.358 6.485 6.655-1.521 13.040-4.648 18.72-9.461 1.138 55.979-25.185 97.724-66.509 124.315-38.125 24.533-89.311 36.294-143.844 33.569 30.264-14.283 50.767-38.612 55.968-68.318 6.994-39.938-14.258-86.167-69.738-126.34l-0.006-0.004c-15.297-11.047-34.528-18.551-51.979-18.892-8.789-0.17-17.475 1.474-24.956 5.782-7.595 4.376-13.502 11.254-16.909 20.67-9.833 27.082 6.692 52.136 23.164 69.121z" />
<glyph unicode="&#xe94d;" d="M532.016 316.758c-16.983 1.627-33.968 7.319-48.929 16.265-3.64 2.438-7.685 4.472-10.919 7.317l-5.257 4.067c-1.619 1.218-3.236 3.252-4.854 4.472l-4.852 4.879-4.043 5.286c-1.214 1.627-2.831 3.661-4.045 5.286l-3.638 5.692c-2.428 3.661-4.045 8.133-6.066 12.198-2.021 4.067-3.236 8.539-4.448 12.605-1.619 4.067-1.619 8.946-2.428 13.012-0.807 4.472-0.807 8.946-0.807 13.418 0 17.89 4.448 34.967 11.726 50.419 0.405 0.813 1.214 1.218 2.023 0.813 0.807-0.407 0.807-1.22 0.807-1.627-3.638-16.67-5.662-32.936-4.448-49.199 1.212-16.263 5.662-31.715 13.749-45.134 8.088-13.823 19.411-25.614 32.351-34.967 12.94-9.351 27.901-16.67 44.077-21.956 0.809-0.407 1.214-1.22 0.809-2.034 0.405-0.813 0-1.22-0.809-0.813z" />
<glyph unicode="&#xe94e;" d="M519.885 551.778c5.257 6.099 12.131 10.164 19.814 13.012 7.278 2.845 15.366 4.472 23.454 4.472s16.176-1.22 23.456-3.659c7.683-2.44 14.557-6.506 20.218-11.791 0.809-0.407 0.809-1.627 0-2.034-0.405-0.407-0.809-0.407-1.617-0.407-7.28 2.034-14.154 3.659-21.432 4.879-6.876 1.22-13.749 1.627-21.028 1.22-6.876 0-13.749-0.813-20.625-2.034-6.874-1.218-13.749-3.252-21.028-5.692-0.809-0.407-1.617 0-2.021 0.813 0 0.407 0.405 0.813 0.809 1.22z" />
<glyph unicode="&#xe94f;" d="M709.54 300.090c-4.448-5.692-11.321-8.946-18.602-9.76-7.278-0.811-14.557 0.407-21.028 3.661-6.469 2.845-12.535 7.726-16.176 13.825-4.043 6.099-5.662 13.823-4.448 20.329 0 0.813 1.212 1.22 2.021 1.22 0.405 0 0.809-0.407 1.214-0.813 2.426-5.692 5.257-10.571 9.3-14.232 4.045-3.659 8.492-6.91 13.345-8.944 4.852-2.44 10.109-3.659 15.771-4.472 5.662-0.407 10.919 0 16.985 2.032 0.809 0.407 1.617 0 2.021-1.218 0-0.407 0-1.22-0.405-1.627z" />
<glyph unicode="&#xe950;" d="M592.675 725.804c12.131-2.44 23.454-7.726 33.968-14.232s19.816-15.043 27.903-23.989c8.088-9.351 15.366-19.517 20.623-30.902 5.257-10.978 9.302-23.176 10.514-35.374 0-0.813-0.405-1.627-1.212-1.627-0.809 0-1.214 0.407-1.619 0.813-4.852 10.98-10.109 21.551-16.176 31.309-6.064 9.76-12.94 19.111-20.623 27.65-3.64 4.472-7.683 8.537-12.131 12.605-4.045 4.065-8.492 7.724-12.942 11.385-8.895 7.317-18.602 13.823-29.116 19.922-0.807 0.407-0.807 1.22-0.405 2.034 0 0 0.405 0.407 1.214 0.407z" />
<glyph unicode="&#xe951;" d="M712.776 246.419c-6.471-15.45-16.176-28.868-27.903-41.066-11.323-12.198-24.668-22.769-38.82-31.309-14.154-8.537-29.52-15.45-45.696-20.331-15.771-4.472-32.756-6.91-48.931-6.097-0.809 0-1.617 0.811-1.617 1.625s0.403 1.22 1.212 1.627c15.771 3.252 31.137 7.319 46.1 13.012 14.557 5.692 29.116 12.605 42.46 21.142 6.874 4.067 13.345 8.539 19.411 13.418 6.469 4.472 12.535 9.76 18.197 15.045 11.728 10.571 22.645 22.362 32.351 35.374 0.405 0.813 1.617 0.813 2.021 0.407 1.214-1.627 1.214-2.44 1.214-2.847z" />
<glyph unicode="&#xe952;" d="M310.818 533.885c0 4.879 1.212 9.351 2.831 13.823 1.617 4.474 3.638 8.539 6.066 12.605 2.426 4.067 5.257 7.726 8.088 11.385 3.233 3.254 6.469 6.506 10.917 9.353 0.809 0.407 1.619 0.407 2.428-0.407 0.403-0.407 0.403-0.813 0-1.22-1.214-4.879-2.831-9.351-4.854-13.418-2.021-4.065-4.043-8.131-6.064-11.791-2.426-3.659-4.45-7.317-7.28-10.978-2.831-3.659-5.662-7.319-8.895-10.571-0.809-0.813-1.619-0.407-2.426 0-0.405 0.407-0.809 0.813-0.809 1.22z" />
<glyph unicode="&#xe953;" d="M342.762 283.418c-12.94 14.232-23.049 30.495-31.542 47.981-8.492 17.484-14.154 35.781-18.197 54.889-3.64 19.111-5.257 38.221-4.448 57.738 0.807 19.111 4.043 38.628 10.514 56.518 0.405 0.813 1.212 1.218 2.021 0.813 0.809-0.407 1.212-0.813 1.212-1.627-2.426-18.704-3.638-37.408-3.233-56.112s2.426-37.001 6.469-55.298c3.64-18.297 8.897-35.781 15.771-53.264 6.876-17.484 14.963-34.154 24.668-50.419 0.405-0.813 0.405-1.625-0.405-2.032-1.617 0-2.426 0-2.831 0.811z" />
<glyph unicode="&#xe954;" d="M511.442 186.518c90.316 0 176.547 17.009 242.343 47.791 107.481 50.624 123.42 118.663 123.42 155.112 0 74.519-61.71 138.103-170.417 173.743-38.824 12.554-97.672 21.87-120.558 25.109-8.582 1.214-15.53 8.505-15.53 17.009 0 0 0 0 0 0.405v44.549c0 32.4-26.563 58.726-59.257 58.726-32.692 0-59.257-26.326-59.257-58.726v-44.549c0 0 0 0 0-0.405 0-8.909-6.947-15.795-15.53-17.009-22.886-3.24-81.734-12.556-120.558-25.109-108.705-35.235-170.415-99.224-170.415-173.743 0-36.044 15.938-104.489 123.418-155.112 65.798-30.781 152.026-47.791 242.343-47.791z" />
<glyph unicode="&#xe955;" d="M444.747 650.237c0 36.572 29.958 66.163 66.695 66.163 36.739 0 66.695-29.592 66.695-66.163v-44.954c0-4.394 3.806-8.891 9.136-9.645 22.863-3.238 82.296-12.621 121.803-25.398l0.029-0.008c109.879-36.024 175.537-101.462 175.537-180.811 0-19.331-4.239-46.883-22.534-76.181-18.301-29.306-50.35-59.848-105.153-85.662l-0.018-0.008c-66.991-31.339-154.346-48.49-245.494-48.49-91.146 0-178.501 17.15-245.492 48.49l-0.018 0.008c-54.812 25.819-86.86 56.467-105.157 85.82-18.29 29.34-22.53 56.886-22.53 76.023 0 79.336 65.637 145.189 175.56 180.819h0.006c39.505 12.776 98.94 22.16 121.803 25.398 5.443 0.771 9.134 4.95 9.134 9.645v44.954zM511.442 701.525c-28.65 0-51.819-23.057-51.819-51.288v-44.954c0-13.124-10.203-22.714-21.925-24.374-22.906-3.244-81.166-12.488-119.307-24.821-107.491-34.841-165.271-96.965-165.271-166.667 0-16.909 3.729-41.606 20.278-68.154 16.541-26.536 46.202-55.421 98.865-80.228 64.6-30.217 149.7-47.084 239.179-47.084 89.482 0 174.587 16.868 239.185 47.086 52.672 24.811 82.327 53.598 98.864 80.078 16.543 26.491 20.276 51.184 20.276 68.301 0 69.685-57.757 131.413-165.279 166.669-38.143 12.333-96.395 21.576-119.301 24.819-11.834 1.676-21.925 11.759-21.925 24.374v44.954c0 28.231-23.17 51.288-51.819 51.288z" />
<glyph unicode="&#xe956;" d="M687.987 507.275c55.171-23.086 90.316-56.7 90.316-93.959 0-69.256-119.332-125.549-266.863-125.549s-266.861 56.293-266.861 125.549c0 37.258 34.736 70.873 90.316 93.959-78.466-25.921-129.958-69.256-129.958-117.854 0-79.784 137.314-144.178 306.503-144.178 169.191 0 306.505 64.393 306.505 144.178 0 48.598-51.494 91.933-129.958 117.854z" />
<glyph unicode="&#xe957;" d="M341.865 509.869c1.396-3.749-0.423-7.928-4.116-9.463-27.19-11.293-48.819-24.983-63.543-40.001-14.69-14.986-22.189-30.935-22.189-47.088 0-30.056 26.174-59.574 73.838-82.016 47.077-22.168 112.667-36.095 185.585-36.095 72.921 0 138.508 13.927 185.587 36.095 47.662 22.442 73.838 51.96 73.838 82.016 0 16.129-7.579 32.075-22.334 47.079-14.784 15.031-36.423 28.723-63.416 40.018-3.685 1.541-5.494 5.721-4.096 9.465 1.4 3.742 5.506 5.711 9.3 4.458 39.86-13.167 73.346-30.902 97.010-51.924 23.662-21.020 38.054-45.872 38.054-72.992 0-44.467-37.99-82.38-94.081-108.74-56.672-26.632-134.424-42.875-219.862-42.875-85.436 0-163.188 16.243-219.862 42.875-56.089 26.36-94.079 64.273-94.079 108.74 0 27.121 14.391 51.973 38.053 72.992 23.664 21.022 57.15 38.757 97.008 51.924 3.8 1.255 7.91-0.719 9.304-4.468zM245.431 451.293c-21.7-19.278-33.056-40.394-33.056-61.871 0-35.317 30.669-69.493 85.532-95.277 54.282-25.51 129.78-41.463 213.534-41.463s159.253 15.953 213.536 41.463c54.863 25.784 85.532 59.96 85.532 95.277 0 21.477-11.356 42.593-33.056 61.871-2.070 1.84-4.231 3.657-6.477 5.451 9.402-13.345 14.767-27.946 14.767-43.427 0-39.2-33.492-72.457-82.376-95.475-49.471-23.292-117.314-37.512-191.925-37.512-74.609 0-142.453 14.219-191.923 37.512-48.886 23.019-82.376 56.275-82.376 95.475 0 15.397 5.253 29.933 14.53 43.237-2.162-1.733-4.243-3.487-6.24-5.261z" />
<glyph unicode="&#xe958;" d="M396.196 523.071c20.433 4.051 39.642 6.479 56.396 8.1 33.103 2.835 58.848 35.235 58.848 74.519 0-38.879 25.747-71.279 58.85-74.519 16.754-1.621 35.963-4.049 56.396-8.1-20.433 4.051-38.007 5.265-52.719 4.86-34.736-0.809-62.527-34.426-62.527-74.924 0 40.498-27.789 73.708-62.525 74.924-14.712 0.405-32.286-0.809-52.719-4.86z" />
<glyph unicode="&#xe959;" d="M511.442 657.677c4.106 0 7.438-3.33 7.438-7.438v-44.549c0-35.985 23.701-64.332 52.132-67.116 16.917-1.635 36.38-4.096 57.121-8.206 4.029-0.799 6.649-4.713 5.85-8.742-0.799-4.031-4.713-6.649-8.742-5.85-19.912 3.945-36.931 5.11-51.069 4.719h-0.031c-29.639-0.691-55.261-29.88-55.261-67.488v-57.105c0-4.108-3.332-7.438-7.438-7.438-4.108 0-7.438 3.33-7.438 7.438v57.105c0 37.51-25.557 66.431-55.323 67.49-14.132 0.386-31.141-0.779-51.041-4.721-4.029-0.799-7.943 1.819-8.742 5.85-0.797 4.029 1.821 7.943 5.85 8.742 20.744 4.11 40.208 6.571 57.127 8.206l0.082 0.008c28.31 2.424 52.046 30.659 52.046 67.108v44.549c0 4.108 3.33 7.438 7.438 7.438zM511.495 569.167c-7.648-17.884-20.789-32.298-37.271-39.86 16.388-7.681 29.526-22.052 37.203-39.834 7.669 17.876 20.819 32.371 37.258 40.016-16.402 7.64-29.516 21.97-37.191 39.678z" />
<glyph unicode="&#xe95a;" d="M867.328 610.53c-21.917 35.446-72.011 49.553-133.936 37.616-53.228-10.128-81.405-31.83-127.675-73.064-18.438-16.637-41.050-34.36-64.706-46.297 1.739 16.999-2.436 33.277-11.828 47.382-15.307 22.788-52.88 38.701-94.277 30.745-41.399-7.957-80.71-40.149-93.583-75.956-2.434 11.936-8 22.788-16.002 31.83-13.567 14.829-33.050 22.786-54.27 21.7-42.444-1.807-83.494-37.616-90.799-79.933-3.479-19.534 0.348-38.704 11.132-53.894 1.74-2.532 3.479-4.703 5.218-6.872-20.873-9.042-38.268-26.767-46.269-48.106-8.697-23.149-6.61-47.384 5.914-67.277 12.524-20.255 33.745-32.19 58.097-33.275 28.874-1.085 57.401 14.105 73.753 39.063 0 0 4.871-56.065 73.75-60.042 79.32-4.703 128.022 67.637 128.022 67.637-5.913-45.573 43.139-86.807 98.106-98.020 11.479-2.171 23.307-3.618 35.135-3.618 58.098 0 118.978 27.129 135.329 78.126 6.61 20.979 4.174 43.405-6.61 62.574-14.612 25.318-42.791 42.681-79.318 48.829-5.568 1.085-11.133 1.809-17.046 2.171 17.394 3.256 59.836 12.298 67.49 13.384 48.007 7.233 109.584 33.998 138.459 76.679 19.83 28.936 21.917 62.211 5.913 88.616z" />
<glyph unicode="&#xe95b;" d="M731.994 655.451c63.143 12.169 117.331-1.66 141.659-41.009l0.035-0.057c17.737-29.267 15.084-65.697-6.13-96.663-15.36-22.692-39.106-40.77-64.782-54.047-25.735-13.308-53.912-22.058-78.713-25.796l-0.065-0.008c-3.73-0.529-15.932-3-29.467-5.766 28.318-8.777 50.769-25.058 63.741-47.535l0.039-0.072c11.781-20.938 14.457-45.491 7.221-68.455l-0.010-0.037c-8.911-27.795-29.831-48.659-55.576-62.47-25.731-13.805-56.708-20.823-86.836-20.823-12.419 0-24.729 1.519-36.517 3.746-0.037 0.006-0.072 0.014-0.106 0.020-28.705 5.856-56.005 19.556-75.508 38.011-14.081 13.324-24.449 29.518-27.84 47.259-5.79-6.33-13.48-13.899-22.918-21.373-22.927-18.16-56.69-36.147-98.809-33.651-36.792 2.128-57.328 18.375-68.428 34.767-3.871 5.715-6.53 11.348-8.356 16.239-18.152-19.591-44.124-31.029-70.564-30.035l-0.051 0.002c-26.655 1.188-50.183 14.32-64.077 36.77-13.829 21.984-16.022 48.657-6.568 73.824zM295.507 334.837l0.002-0.016c0.006-0.057 0.018-0.164 0.037-0.317 0.041-0.309 0.11-0.801 0.223-1.455 0.227-1.308 0.63-3.248 1.312-5.619 1.371-4.754 3.843-11.131 8.221-17.596 8.554-12.631 24.893-26.405 56.976-28.257l0.012-0.002c37.195-2.203 67.443 13.629 88.698 30.462 10.6 8.396 18.835 16.946 24.41 23.388 2.784 3.217 4.893 5.895 6.291 7.746 0.697 0.924 1.218 1.641 1.555 2.115 0.17 0.237 0.292 0.415 0.368 0.525l0.080 0.114 0.010 0.014c0 0.002 0.002 0.004 0.004 0.006 1.927 2.857 5.566 4.016 8.791 2.8 3.227-1.218 5.194-4.497 4.75-7.916-2.551-19.664 6.645-39.151 23.959-55.537 17.275-16.347 41.962-28.864 68.203-34.227 11.156-2.107 22.485-3.479 33.702-3.479 27.971 0 56.481 6.545 79.805 19.055 23.299 12.499 40.991 30.689 48.435 53.882 5.974 18.976 3.787 39.255-5.983 56.645-13.224 22.884-39.139 39.292-74.090 45.177-0.033 0.004-0.063 0.010-0.094 0.016-0.033 0.004-0.063 0.010-0.096 0.016-5.251 1.024-10.491 1.707-16.077 2.048-3.746 0.229-6.737 3.215-6.968 6.964-0.233 3.746 2.363 7.080 6.054 7.771 7.276 1.361 19.497 3.855 31.654 6.334 15.879 3.24 31.648 6.457 36.124 7.096 23.2 3.499 49.804 11.748 74.069 24.296 24.323 12.578 45.794 29.214 59.31 49.193l0.025 0.037c18.43 26.892 19.953 56.994 5.707 80.528-19.513 31.521-65.503 45.892-126.185 34.197l-0.018-0.004c-51.147-9.731-78.059-30.264-124.096-71.292-18.663-16.838-41.833-35.045-66.325-47.402-2.426-1.224-5.328-1.028-7.567 0.513s-3.46 4.182-3.182 6.884c1.56 15.241-2.162 29.794-10.612 42.491-13.304 19.787-47.568 35.096-86.69 27.576-39.102-7.518-76.097-38.092-87.986-71.169-1.128-3.139-4.208-5.142-7.534-4.903-3.327 0.239-6.087 2.665-6.753 5.931-2.16 10.587-7.094 20.245-14.244 28.341-12.016 13.108-29.304 20.225-48.363 19.25l-0.061-0.002c-38.955-1.66-77.078-34.91-83.787-73.771l-0.007-0.039c-3.165-17.77 0.357-34.875 9.875-48.283 0.022-0.031 0.044-0.061 0.066-0.092 1.562-2.275 3.136-4.243 4.891-6.432 1.45-1.811 1.974-4.192 1.415-6.444-0.558-2.25-2.134-4.11-4.262-5.032-19.104-8.278-35-24.527-42.261-43.893l-0.002-0.004c-7.935-21.12-5.958-42.902 5.246-60.698l0.032-0.051c11.152-18.035 30.047-28.766 52.074-29.755 26.136-0.975 52.24 12.832 67.228 35.707 1.737 2.651 4.963 3.91 8.037 3.137 3.064-0.773 5.306-3.395 5.592-6.541 0 0 0-0.002 0-0.004v-0.010c0 0 0 0 0 0 0.002-0.002 0.002-0.004 0.002-0.006 0-0.004 0-0.006 0-0.008zM731.994 655.451c-55.294-10.522-84.739-33.387-131.225-74.815l-0.035-0.031c-15.262-13.774-33.222-28.108-52.067-39.165-0.901 13.878-5.455 27.080-13.294 38.851l-0.018 0.025c-17.316 25.782-58.188 42.295-101.854 33.902-37.089-7.129-72.69-32.564-91.079-63.662-3.045 6.199-6.929 11.957-11.532 17.159-0.027 0.031-0.055 0.061-0.082 0.092-15.111 16.517-36.758 25.295-60.107 24.11-45.91-1.972-89.866-40.32-97.776-86.079-3.779-21.246 0.329-42.43 12.324-59.386-18.861-10.567-34.244-27.791-41.88-48.157z" />
<glyph unicode="&#xe95c;" d="M715.302 332.748c7.307 23.147-14.262 43.764-50.442 49.914-5.22 0.724-10.438 1.445-15.656 1.807-20.525 1.085-37.571 6.15-47.312 15.192l-4.174 3.979c-9.394 8.68-11.133 20.253-5.915 32.19s17.046 23.873 34.442 32.915l8 4.339c18.438 9.768 41.399 15.192 63.664 16.278 5.566 0.362 11.828 0.724 18.091 1.809 44.181 6.872 89.754 30.021 108.192 57.148 27.482 40.872-15.654 66.552-83.144 53.53-42.442-8.319-82.449-30.742-99.496-54.615-2.436-3.618-4.523-6.872-5.915-10.128-5.566-13.022-18.091-26.041-35.484-35.807l-7.652-4.341c-16.699-9.404-35.484-14.467-52.533-15.19 0 0 0 0-0.347 0 0 0 0 0-0.347 0-16.351-0.724-30.266 2.53-38.268 9.766l-3.479 3.254c-7.652 6.874-9.044 16.639-5.218 27.491 10.436 24.594-6.61 41.955-36.179 40.147h-0.347c-0.35 0-0.35 0-0.697 0-0.695 0-1.392 0-2.087 0-0.347 0-0.697 0-1.392 0s-1.044 0-1.739-0.362c-0.695 0-1.044 0-1.739-0.36-0.347 0-1.044 0-1.392-0.362-0.695 0-1.392-0.362-2.087-0.362-0.347 0-0.347 0-0.695 0h-0.35c-28.527-6.15-54.965-27.129-61.227-48.469-3.479-9.404-10.784-18.808-20.872-26.041l-4.523-3.256c-10.089-7.233-21.569-10.849-32.006-11.211-10.089-0.362-18.786 2.169-24.004 7.957l-2.089 2.532c-4.869 5.786-5.913 14.105-3.129 23.147 0.695 2.171 1.042 4.341 1.39 6.872 1.392 15.192-9.044 25.682-24.699 24.958-21.917-1.085-44.531-20.979-48.357-41.596-2.434-14.105 4.871-24.956 18.438-27.127 2.087-0.362 4.176-0.362 6.263-0.362 8.697 0.362 16.349-2.171 20.872-7.957l2.087-2.532c4.523-5.786 5.568-13.745 2.784-22.426-2.434-8.319-8.002-16.276-16.002-21.702l-3.481-2.53c-7.652-5.427-16.697-7.957-25.046-7.595-2.089 0-4.176 0-6.263-0.362-14.264-1.809-27.483-12.298-32.006-24.958-6.958-18.446 4.175-35.807 24.004-36.531 14.264-0.724 29.571 8.319 36.529 21.702 1.042 2.169 1.739 3.977 2.434 6.148 2.436 7.957 8.002 15.552 16.004 20.979l3.479 2.532c8.349 5.425 18.438 7.957 27.83 7.595 10.089-0.362 18.786-3.979 24.006-10.489l2.434-2.894c5.218-6.51 6.263-14.829 3.479-23.509-6.957-18.81 4.871-36.171 26.788-41.234h0.695c0.697 0 1.044-0.362 1.739-0.362 0.35 0 0.697 0 1.044-0.362 0.347 0 1.044 0 1.392-0.362 0.347 0 1.042 0 1.392-0.362 0.347 0 0.695 0 1.042 0 0.697 0 1.044 0 1.739 0h0.697c25.743-1.447 52.183 13.022 59.488 33.998 3.826 9.404 12.176 18.087 24.351 24.596l5.568 2.894c12.871 6.872 28.874 9.766 44.181 9.042 0 0 0 0 0.347 0s0 0 0.347 0c16.004-0.724 29.919-5.427 38.616-13.745l3.828-3.977c8.697-8.683 10.089-20.255 5.566-31.106-1.044-2.894-2.087-5.788-2.436-8.68-2.434-19.532 16.351-37.618 47.662-44.128 49.747-10.489 108.887 9.766 119.324 42.681zM459.954 435.831c-3.826-10.489-12.523-20.255-25.048-27.127l-5.566-2.894c-11.828-6.872-25.743-9.766-37.921-9.042-12.176 0.724-22.264 4.341-28.177 11.213l-2.436 2.894c-5.566 6.872-6.61 15.552-3.479 24.956s10.089 18.446 20.874 25.32l4.869 3.254c11.133 7.235 24.353 11.213 37.224 11.936 13.22 0.724 25.048-2.532 32.355-9.766l3.131-3.256c6.957-6.51 8.347-16.637 4.174-27.489z" />
<glyph unicode="&#xe95d;" d="M808.539 586.655c2.436-1.809 4.871-3.979 5.915-7.233 1.39-2.894 2.087-6.512 1.39-9.766-0.695-6.874-3.479-12.66-6.957-17.363-3.479-4.701-7.652-8.68-12.176-12.296-4.523-3.618-9.394-6.15-14.612-8.321-0.695-0.362-1.39 0-1.739 0.724 0 0.362 0 1.085 0.35 1.447 3.129 4.703 6.957 8.68 10.436 12.66s6.61 7.957 9.741 11.936c2.782 3.977 5.218 8.319 6.608 12.298 1.392 4.339 1.044 8.68-1.042 13.743-0.347 0.724 0 1.447 0.695 1.809 0.347 0.362 1.044 0.362 1.392 0.362z" />
<glyph unicode="&#xe95e;" d="M525.357 468.022c-4.174-2.532-9.044-3.979-13.915-4.341s-10.436 0.362-15.307 2.894c-4.871 2.171-9.044 6.148-11.828 10.851-2.784 4.701-3.826 10.128-3.479 15.19 0 0.724 0.695 1.447 1.392 1.447 0.347 0 0.695-0.362 1.042-0.724 2.784-3.977 5.218-7.595 8.002-10.489 2.784-2.892 5.915-5.063 9.394-6.51 3.479-1.809 7.305-2.894 11.131-3.618 4.176-0.724 8.349-1.085 13.22-1.809 0.695 0 1.392-0.722 1.044-1.445-0.35-0.724-0.35-1.085-0.697-1.447z" />
<glyph unicode="&#xe95f;" d="M381.678 384.107c-6.263-3.977-14.959-4.339-21.917-0.362-3.479 1.809-6.61 4.703-8.697 8.321-2.089 3.616-3.131 7.233-3.131 11.211 0 0.724 0.695 1.085 1.042 1.085 0.35 0 0.697 0 0.697-0.362 2.434-2.892 4.521-5.063 6.61-7.233 2.087-2.171 4.521-3.616 6.957-5.063 2.434-1.447 5.218-2.171 8.002-3.256 2.782-0.724 5.913-1.447 9.392-2.171 0.697 0 1.044-0.724 1.044-1.447 0.347-0.362 0-0.724 0-0.724z" />
<glyph unicode="&#xe960;" d="M694.082 355.893c2.087-1.445 3.479-3.977 4.871-6.51 1.042-2.532 1.739-5.786 1.392-8.68-0.35-6.148-3.131-11.213-6.263-15.19-3.479-3.979-7.305-7.235-11.481-9.766-4.174-2.532-8.697-4.341-13.567-5.065-0.695 0-1.392 0.362-1.392 1.085 0 0.362 0 0.724 0.347 1.085 3.131 3.616 6.61 6.872 9.741 9.766 3.131 3.256 6.263 6.148 8.697 9.404 2.436 3.256 4.523 6.51 5.915 9.766 0.695 1.809 1.042 3.618 1.042 5.425 0 2.171-0.347 3.979-0.695 6.512 0 0.724 0.347 1.447 1.044 1.809-0.35 0.722 0 0.722 0.347 0.36z" />
<glyph unicode="&#xe961;" d="M876.607 694.874c-5.895 22.538-24.966 39.529-47.852 42.998l-23.233 3.466-3.466 23.233c-3.469 23.232-20.46 41.957-42.998 47.852s-46.464-1.734-61.027-20.112l-14.91-18.378-21.845 8.669c-21.845 8.322-46.466 3.121-63.11-13.176-16.644-16.643-21.845-41.264-13.177-63.109l8.67-21.845-18.379-14.91c-1.733-1.386-3.121-2.774-4.507-4.159-1.388 0.693-2.776 1.386-4.509 2.079-19.072 9.016-41.957 5.202-57.213-9.709l-42.305-41.61c-87.727 16.991-178.577-10.056-242.379-74.204-50.972-50.973-79.059-118.59-79.059-190.713 0-72.126 28.087-140.088 79.059-190.713 50.973-50.973 118.59-79.061 190.713-79.061 72.126 0 139.742 28.087 190.713 79.061 51.321 51.319 79.406 119.283 79.061 191.754 0 1.386 0 2.426 0 4.161-1.388 14.91-3.469 29.821-6.935 44.384l44.384 44.384c14.91 14.91 19.072 38.143 9.709 57.215-0.693 1.386-1.386 2.774-2.081 4.507 1.388 1.388 2.776 2.774 4.161 4.509l14.91 18.377 21.845-8.668c21.845-8.323 46.464-3.121 63.11 13.175 16.644 16.646 21.845 41.265 13.175 63.11l-8.668 21.845 18.379 14.91c18.029 14.217 25.659 38.143 19.765 60.682z" />
<glyph unicode="&#xe962;" d="M692.226 796.963c16.447 20.729 43.413 29.272 68.714 22.655 25.398-6.643 44.561-27.751 48.471-53.949l2.655-17.786 17.802-2.657c25.802-3.91 47.282-23.035 53.933-48.469 6.608-25.261-1.893-52.244-22.313-68.373-0.014-0.010-0.027-0.020-0.041-0.033l-14.056-11.403 6.655-16.768c9.774-24.633 3.89-52.392-14.831-71.112l-0.029-0.027-0.027-0.029c-18.71-18.318-46.393-24.171-70.961-14.812l-0.049 0.018-16.815 6.673-11.436-14.097c-0.006-0.006-0.010-0.012-0.014-0.018-0.364-0.454-0.728-0.887-1.087-1.3 10.653-21.952 5.811-48.475-11.237-65.524l-41.475-41.475c3.019-13.698 4.893-27.585 6.173-41.344l0.033-0.345v-4.497c0.35-74.456-28.529-144.312-81.237-197.021-52.365-52.365-121.872-81.239-195.974-81.239-74.098 0-143.601 28.872-195.962 81.229-52.386 52.034-81.248 121.899-81.248 195.983 0 74.098 28.87 143.599 81.227 195.962 64.641 64.988 156.28 92.91 245.198 76.978l39.556 38.908c17.418 17.022 43.535 21.437 65.389 11.209 0.025-0.010 0.051-0.020 0.076-0.031 0.413 0.358 0.844 0.719 1.296 1.083 0.008 0.004 0.014 0.010 0.022 0.016l14.095 11.436-6.653 16.768c-9.776 24.633-3.89 52.392 14.831 71.112l0.027 0.028 0.029 0.027c18.71 18.319 46.391 24.173 70.961 14.813l0.047-0.018 16.815-6.673 11.415 14.069c0.010 0.011 0.018 0.022 0.027 0.033zM757.175 805.227c-19.763 5.169-40.635-1.532-53.315-17.535l-0.027-0.034-18.379-22.653-26.828 10.647c-0.014 0.006-0.031 0.012-0.045 0.018-19.098 7.255-40.617 2.712-55.186-11.531-14.544-14.567-19.051-36.034-11.493-55.077l10.684-26.924-22.661-18.383c-1.369-1.096-2.485-2.205-3.894-3.614l-3.791-3.789-4.795 2.398c-1.394 0.697-2.53 1.261-3.943 1.827l-0.213 0.084-0.204 0.098c-16.245 7.679-35.787 4.441-48.829-8.298-0.004-0.002-0.006-0.004-0.008-0.006l-45.074-44.337-3.843 0.742c-85.331 16.527-173.663-9.782-235.69-72.146l-0.014-0.014c-49.582-49.581-76.882-115.307-76.882-185.454 0-70.161 27.309-136.221 76.863-185.436l0.018-0.018c49.581-49.581 115.307-76.882 185.452-76.882 70.147 0 135.873 27.301 185.454 76.882 49.923 49.923 77.219 115.984 76.882 186.458v3.851c-1.367 14.579-3.399 29.003-6.733 43.008l-0.963 4.043 47.323 47.323c12.707 12.709 16.214 32.508 8.304 48.651-0.004 0.008-0.008 0.018-0.012 0.027l-0.008 0.014c-0.683 1.367-1.494 2.986-2.301 5.010l-1.823 4.554 3.469 3.466c1.408 1.408 2.518 2.526 3.614 3.896l0.014 0.020 18.369 22.638 26.828-10.647c0.014-0.004 0.029-0.010 0.045-0.016 19.098-7.256 40.617-2.712 55.184 11.53 14.547 14.567 19.053 36.034 11.495 55.079l-10.684 26.922 22.702 18.418c15.611 12.308 22.352 33.158 17.173 52.958-5.136 19.64-21.798 34.497-41.765 37.524-0.002 0-0.002 0.002-0.004 0.002l-28.662 4.278-4.28 28.677c-3.025 20.266-17.845 36.607-37.524 41.754z" />
<glyph unicode="&#xe963;" d="M745.36 763.094c2.849-0.755 4.983-3.119 5.443-6.030l9.553-60.51 60.506-9.236c2.915-0.444 5.292-2.567 6.060-5.414 0.766-2.845-0.217-5.876-2.512-7.726l-47.793-38.552 21.976-57.009c1.059-2.745 0.399-5.856-1.68-7.934-2.081-2.081-5.189-2.739-7.934-1.682l-56.988 21.968-38.207-47.76c-1.842-2.301-4.867-3.299-7.714-2.545-2.849 0.756-4.983 3.121-5.441 6.030l-9.559 60.541-60.541 9.559c-2.911 0.46-5.273 2.594-6.030 5.441-0.754 2.847 0.243 5.872 2.545 7.714l47.746 38.197-22.293 57.326c-1.069 2.747-0.413 5.868 1.674 7.955 2.085 2.085 5.206 2.741 7.955 1.672l57.324-22.293 38.199 47.747c1.84 2.301 4.865 3.298 7.712 2.543zM738.735 738.099l-31.082-38.853c-2.032-2.539-5.476-3.464-8.505-2.287l-46.66 18.146 18.146-46.66c1.177-3.029 0.253-6.473-2.285-8.503l-38.855-31.084 49.238-7.775c3.186-0.503 5.684-3 6.187-6.187l7.775-49.238 31.084 38.855c2.026 2.532 5.457 3.46 8.482 2.293l46.421-17.894-17.894 46.421c-1.161 3.015-0.245 6.436 2.271 8.466l38.877 31.36-49.199 7.511c-3.203 0.488-5.721 2.992-6.226 6.191l-7.775 49.238z" />
<glyph unicode="&#xe964;" d="M605.448 561.372l85.301 85.301c5.549 5.549 14.217 5.549 19.765 0 5.549-5.547 5.549-14.215 0-19.765l-85.301-85.301c-5.547-5.547-14.215-5.547-19.765 0-5.202 5.549-5.202 14.565 0 19.765z" />
<glyph unicode="&#xe965;" d="M616.197 427.526c-11.442 27.74-28.087 53.399-49.238 75.937-3.469 3.814-3.121 9.363 0.345 12.83 3.469 3.121 9.016 3.121 12.484 0 24.271-22.538 44.036-48.892 58.601-78.366 0.693-1.040 1.040-2.426 1.733-3.466l46.119 46.117c-14.217 30.168-33.982 58.256-58.948 83.22-24.966 24.966-53.054 44.731-83.22 58.948l-62.415-62.415c-75.94 24.271-161.933 6.242-222.269-53.747-85.647-85.648-85.647-224.695 0-310.689 85.648-85.996 224.695-85.648 310.689 0 42.998 42.998 64.498 99.518 64.15 156.038-1.733 26.007-7.975 51.666-18.031 75.592z" />
<glyph unicode="&#xe966;" d="M538.814 628.005c2.218 2.22 5.59 2.806 8.429 1.47 30.967-14.594 59.756-34.863 85.309-60.416 25.553-25.555 45.822-54.344 60.416-85.309 1.339-2.839 0.75-6.211-1.468-8.431l-46.119-46.117c-1.576-1.576-3.775-2.363-5.993-2.144-2.216 0.221-4.219 1.423-5.455 3.276-0.74 1.112-1.241 2.287-1.47 2.825-0.016 0.039-0.031 0.074-0.045 0.104-0.184 0.429-0.262 0.593-0.276 0.625-0.155 0.239-0.296 0.488-0.423 0.744-14.142 28.623-33.336 54.231-56.931 76.154-0.26 0.221-0.689 0.409-1.243 0.409-0.48 0-0.865-0.141-1.128-0.323-0.305-0.368-0.441-0.777-0.454-1.145-0.014-0.382 0.094-0.803 0.472-1.232 21.717-23.155 38.84-49.544 50.628-78.112 10.357-24.65 16.795-51.106 18.585-77.955 0.010-0.149 0.014-0.3 0.016-0.45 0.358-58.437-21.874-116.889-66.327-161.342l-0.010-0.010c-88.877-88.52-232.634-88.912-321.209 0.020-88.532 88.89-88.547 232.64 0.010 321.197l0.016 0.016c61.215 60.864 148.008 79.944 225.421 56.9l59.247 59.245zM545.596 613.751l-58.679-58.679c-1.968-1.968-4.873-2.673-7.524-1.825-73.378 23.454-156.451 6.032-214.754-51.93-82.728-82.738-82.74-217.078 0.020-300.173 82.719-83.054 217.051-82.756 300.163 0.014 41.481 41.483 62.245 95.978 61.969 150.506-1.698 25.077-7.732 49.853-17.453 72.98l-0.018 0.045c-11.088 26.882-27.231 51.783-47.787 73.685-0.027 0.029-0.053 0.057-0.080 0.086-6.265 6.892-5.547 16.954 0.591 23.092 0.092 0.094 0.188 0.184 0.284 0.27 6.295 5.668 16.139 5.668 22.434 0 0.029-0.025 0.057-0.051 0.086-0.078 23.331-21.665 42.626-46.781 57.277-74.762l35.121 35.121c-13.649 27.593-32.138 53.362-55.212 76.436-23.076 23.076-48.843 41.565-76.438 55.212z" />
<glyph unicode="&#xe967;" d="M283.662 219.822c-4.507 4.161-8.668 8.323-13.175 12.484-4.161 4.507-7.63 9.361-11.444 14.215-3.466 4.856-6.588 10.056-10.056 15.258-3.121 5.202-5.547 10.749-8.321 16.298-9.711 22.538-14.91 47.157-14.91 71.431 0 24.619 5.2 49.238 14.91 71.431 2.774 5.547 5.2 11.096 8.321 16.296 3.121 5.202 6.59 10.404 10.056 15.258 3.814 4.854 7.628 9.709 11.444 14.217 4.507 4.161 8.668 8.668 13.175 12.482 0.695 0.693 1.735 0.693 2.428 0s0.693-1.733 0-2.081c-3.469-4.854-7.282-9.361-11.096-13.87l-9.709-14.563c-2.774-5.202-5.549-10.404-8.323-15.258-2.426-5.202-4.507-10.749-6.935-15.951-8.321-21.498-12.83-44.731-12.83-67.617 0-23.231 4.161-46.117 12.484-67.617l3.466-7.975c1.040-2.774 2.081-5.547 3.469-7.975 2.774-5.2 5.547-10.401 8.321-15.256l9.709-14.563c3.469-4.509 7.282-9.016 11.096-13.872 0.695-0.693 0.347-1.733-0.345-2.426-0.347-1.040-1.040-0.693-1.735-0.347z" />
<glyph unicode="&#xe968;" d="M512.135 84.141c200.722 0 363.44 162.716 363.44 363.438s-162.718 363.439-363.44 363.439c-200.72 0-363.438-162.717-363.438-363.439s162.718-363.438 363.438-363.438z" />
<glyph unicode="&#xe969;" d="M512.135 803.58c-196.614 0-356.001-159.387-356.001-356.001s159.387-356 356.001-356c196.614 0 356 159.386 356 356s-159.386 356.001-356 356.001zM141.258 447.579c0 204.831 166.048 370.877 370.876 370.877 204.831 0 370.876-166.046 370.876-370.877 0-204.829-166.045-370.876-370.876-370.876-204.829 0-370.876 166.047-370.876 370.876z" />
<glyph unicode="&#xe96a;" d="M487.906 728.184c-144.249-12.396-257.506-132.979-257.506-280.609s113.257-268.212 257.506-280.609v155.519c-74.942 8.452-137.488 58.037-164.535 125.089-10.142 23.666-15.213 50.149-15.213 77.759 0 104.244 78.323 190.454 179.748 202.85z" />
<glyph unicode="&#xe96b;" d="M495.303 728.954c0.421-4.035-2.469-7.661-6.496-8.153-97.75-11.947-173.211-95.040-173.211-195.467 0-26.708 4.905-52.181 14.612-74.83 0.020-0.047 0.041-0.098 0.061-0.147 26.050-64.581 86.308-112.344 158.471-120.48 3.761-0.425 6.604-3.608 6.604-7.393v-155.517c0-2.083-0.875-4.071-2.41-5.48s-3.589-2.109-5.666-1.931c-148.049 12.723-264.306 136.482-264.306 288.020s116.258 275.297 264.306 288.020c4.041 0.347 7.616-2.608 8.035-6.641zM370.931 682.696c-79.747-47.911-133.093-135.15-133.093-235.121 0-140.956 106.052-256.599 242.631-272.384v140.754c-74.752 10.851-136.705 61.266-163.965 128.775-10.557 24.664-15.783 52.132-15.783 80.614 0 62.411 27.082 118.573 70.21 157.363z" />
<glyph unicode="&#xe96c;" d="M536.363 728.184c144.249-12.396 257.506-132.979 257.506-280.609s-113.257-268.212-257.506-280.609v155.519c74.942 8.452 137.488 58.037 164.535 125.089 10.142 23.666 15.213 50.149 15.213 77.759 0.564 104.244-78.323 190.454-179.748 202.85z" />
<glyph unicode="&#xe96d;" d="M528.967 728.954c0.419 4.033 3.994 6.988 8.035 6.641 148.049-12.723 264.306-136.482 264.306-288.020s-116.258-275.297-264.306-288.020c-2.077-0.178-4.133 0.523-5.666 1.931-1.535 1.408-2.41 3.397-2.41 5.48v155.517c0 3.785 2.843 6.968 6.604 7.393 72.16 8.137 132.419 55.899 158.471 120.48 0.012 0.031 0.025 0.061 0.037 0.090 0.008 0.020 0.016 0.039 0.025 0.057 9.704 22.649 14.612 48.122 14.612 74.83v0.041c0.542 100.362-75.429 183.476-173.211 195.427-4.027 0.493-6.917 4.118-6.496 8.153zM653.862 682.379c43.024-38.771 70.018-94.799 69.687-157.066-0.002-28.474-5.228-55.934-15.783-80.596-27.262-67.506-89.213-117.921-163.965-128.773v-140.754c136.576 15.785 242.631 131.428 242.631 272.384 0 99.751-53.113 186.828-132.57 234.805z" />
<glyph unicode="&#xe96e;" d="M531.335 733.663c1.533 1.408 3.589 2.109 5.666 1.931 148.049-12.723 264.306-136.482 264.306-288.020 0-151.536-116.258-275.297-264.306-288.018-4.041-0.347-7.616 2.606-8.035 6.641-0.421 4.033 2.469 7.661 6.496 8.151 97.783 11.953 173.753 95.064 173.211 195.427v0.041c0 26.71-4.907 52.183-14.612 74.83-0.022 0.049-0.043 0.098-0.061 0.147-26.052 64.584-86.31 112.344-158.471 120.482-3.761 0.423-6.604 3.605-6.604 7.391v155.517c0 2.083 0.875 4.071 2.41 5.48zM543.801 719.961v-140.756c74.752-10.851 136.703-61.266 163.965-128.773 10.555-24.66 15.781-52.12 15.783-80.596 0.331-62.268-26.663-118.293-69.687-157.066 79.457 47.977 132.57 135.054 132.57 234.805 0 140.956-106.055 256.601-242.631 272.386z" />
<glyph unicode="&#xe96f;" d="M492.934 733.663c1.535-1.408 2.41-3.397 2.41-5.48v-155.517c0-3.785-2.843-6.968-6.604-7.391-72.162-8.139-132.421-55.899-158.471-120.482-0.012-0.031-0.025-0.061-0.037-0.090-0.008-0.020-0.016-0.039-0.025-0.057-9.707-22.647-14.612-48.12-14.612-74.83 0-100.428 75.461-183.519 173.211-195.467 4.027-0.491 6.917-4.118 6.496-8.151-0.419-4.035-3.994-6.988-8.035-6.641-148.049 12.721-264.306 136.482-264.306 288.018 0 151.538 116.258 275.297 264.306 288.020 2.077 0.178 4.131-0.523 5.666-1.931zM480.469 719.961c-136.578-15.785-242.631-131.43-242.631-272.386 0-99.972 53.346-187.21 133.093-235.121-43.129 38.789-70.21 94.952-70.21 157.363 0 28.482 5.226 55.95 15.783 80.616 27.26 67.506 89.213 117.921 163.965 128.773v140.756z" />
<glyph unicode="&#xe970;" d="M877.261 495.192c-2.428 30.839-27.922 54.374-58.272 54.374-0.405 0-0.809 0-1.214 0l-123.828-0.407c19.828 17.854 25.494 47.476 12.139 71.823-14.567 26.779-46.536 37.737-74.458 25.968l-71.222-30.839c-3.238 4.464-6.88 8.521-11.331 12.174-22.256 17.449-52.202 17.042-73.65 0l-29.945-24.347c-12.139 17.856-32.778 27.593-54.225 25.565-23.066-2.436-42.896-17.856-50.18-40.173l-16.186-50.315-29.945-4.464c-20.639-2.841-38.039-16.635-45.728-35.707-4.047-10.144-5.261-21.101-3.642-31.65l-10.115-6.087c-22.258-13.392-33.184-39.362-27.112-64.518 0.405-1.218 0.807-2.434 1.212-3.652l-44.513-41.389c-21.852-20.288-25.090-53.967-7.284-78.315 17.805-23.94 50.585-30.839 76.483-15.824l36.825 21.506c5.664-12.58 16.186-23.129 29.136-29.216 7.687-3.246 15.781-5.275 23.875-5.275 17.4 0 33.992 7.71 45.324 21.506l51.797 63.3 50.583-11.362c19.83-4.462 40.467 1.623 54.632 16.231 14.162 14.608 20.233 34.898 15.376 54.781v0.405l285.696 43.419c30.352 4.464 52.204 32.055 49.775 62.489z" />
<glyph unicode="&#xe971;" d="M628.738 653.806c31.407 13.236 67.465 0.903 83.88-29.265 12.127-22.125 10.312-48.114-2.563-67.891l108.934 0.354c34.27 0 62.952-26.557 65.687-61.221 2.737-34.319-21.864-65.393-56.091-70.435l-0.016-0.002-278.168-42.274c2.449-19.983-4.584-39.644-18.649-54.149-15.977-16.48-39.264-23.337-61.604-18.309l-46.1 10.357-48.899-59.76c-12.75-15.521-31.452-24.222-51.071-24.222-9.324 0-18.41 2.332-26.769 5.86l-0.137 0.059-0.133 0.063c-11.951 5.615-22.097 14.638-28.891 25.629l-30.176-17.623c-29.193-16.924-66.137-9.132-86.181 17.821l-0.018 0.025-0.018 0.022c-20.017 27.37-16.408 65.281 8.223 88.152l57.303 36.284-57.299-36.279 41.052 38.17c-6.665 28.235 5.661 57.315 30.587 72.312l6.019 3.622c-0.793 10.271 0.766 20.723 4.664 30.497l0.010 0.025c8.668 21.502 28.275 37.068 51.57 40.29l25.336 3.777 14.782 45.949c8.227 25.206 30.595 42.528 56.469 45.26l0.041 0.004 0.039 0.004c21.457 2.030 42.203-6.408 56.144-22.393l24.1 19.593c24.137 19.18 57.894 19.607 82.866 0.031l0.065-0.051 0.063-0.053c3.36-2.755 6.291-5.703 8.926-8.815l66.020 28.586z" />
<glyph unicode="&#xe972;" d="M427.674 514.262l84.575 68.171-30.755-64.111 173.199 74.662-151.752-103.066 315.643 0.811-348.422-52.751 14.569-62.895-85.789 19.478-75.269-91.3 12.546 81.965-131.923-77.096 106.832 99.414-46.131 2.841 60.7 36.114-22.661 30.027 65.961 9.333 27.922 85.213 30.755-56.808z" />
<glyph unicode="&#xe973;" d="M661.214 596.56c1.846-3.362 0.83-7.577-2.342-9.731l-131.648-89.413 291.341 0.75c3.896 0.010 7.139-2.986 7.436-6.872 0.296-3.883-2.453-7.338-6.303-7.92l-340.473-51.547 12.754-55.067c0.578-2.494-0.168-5.11-1.974-6.925s-4.421-2.573-6.919-2.005l-81.319 18.461-72.352-87.762c-2.13-2.581-5.721-3.426-8.777-2.058s-4.822 4.607-4.315 7.914l10.185 66.552-118.457-69.229c-3.274-1.911-7.462-1.057-9.723 1.985s-1.873 7.301 0.903 9.882l94.148 87.61-28.838 1.776c-3.258 0.2-6.003 2.502-6.771 5.674s0.621 6.473 3.426 8.143l53.565 31.869-17.659 23.399c-1.586 2.103-1.944 4.887-0.938 7.321s3.225 4.155 5.833 4.523l61.377 8.685 26.481 80.812c0.924 2.825 3.442 4.826 6.399 5.091 2.96 0.268 5.794-1.253 7.209-3.865l26.501-48.954 77.62 62.564c2.706 2.181 6.561 2.197 9.285 0.041 2.725-2.158 3.591-5.915 2.089-9.048l-22.162-46.201 154.955 66.797c3.522 1.519 7.622 0.11 9.465-3.252zM585.808 555.187l-101.368-43.697c-2.849-1.228-6.16-0.56-8.309 1.678-2.15 2.236-2.684 5.572-1.343 8.368l16.539 34.481-58.987-47.545c-1.719-1.386-3.965-1.936-6.132-1.502-2.165 0.435-4.024 1.811-5.075 3.753l-22.528 41.61-22.54-68.79c-0.883-2.694-3.221-4.652-6.027-5.048l-53.461-7.565 15.055-19.951c1.275-1.686 1.77-3.836 1.363-5.913-0.409-2.075-1.678-3.877-3.497-4.959l-39.969-23.781 22.056-1.357c2.968-0.184 5.541-2.117 6.545-4.916s0.241-5.927-1.936-7.953l-57.661-53.657 73.93 43.204c2.475 1.447 5.564 1.343 7.934-0.27 2.371-1.611 3.605-4.441 3.172-7.276l-8.46-55.276 58.092 70.464c1.786 2.169 4.644 3.146 7.385 2.522l74.221-16.85-11.891 51.337c-0.468 2.019-0.072 4.141 1.093 5.856 1.163 1.715 2.99 2.866 5.040 3.176l249.012 37.7-215.101-0.552c-3.27-0.008-6.16 2.117-7.127 5.243-0.965 3.123 0.225 6.51 2.929 8.347l87.044 59.118z" />
<glyph unicode="&#xe974;" d="M412.699 479.368l33.992 27.593-14.162-27.188 58.272 24.347-52.202-35.709 76.886-2.839-89.836-15.826 2.833-19.883-27.517 4.059-25.898-30.841 2.428 25.97-60.702-38.548 49.371 46.258-21.851-0.405 26.303 15.419-12.546 12.985 30.35 3.65 11.331 40.173 12.948-29.216z" />
<glyph unicode="&#xe975;" d="M870.38 587.912c-10.553 10.191-27.014 11.466-39.045 2.759-12.030-8.705-55.298-21.87-111.442-28.876-32.081-4.035-54.241-4.247-68.173-3.61-0.211 4.458-1.478 8.918-3.587 12.952-6.755 12.527-20.895 18.685-34.616 15.288-3.587-0.85-35.458-9.768-67.539-38.434-10.976-9.766-23.427-23.356-34.403-41.616-10.976 18.048-23.427 31.85-34.403 41.616-32.081 28.666-63.952 37.371-67.539 38.434-13.719 3.397-27.861-2.761-34.403-15.288-2.111-4.035-3.377-8.494-3.589-12.952-13.929-0.85-36.302-0.425-68.173 3.61-56.563 7.007-99.621 20.171-111.862 28.876-11.819 8.494-28.282 7.432-38.835-2.759-10.553-10.193-12.453-26.755-4.432-39.069 12.664-19.536 27.438-39.92 47.278-59.028-0.844-5.946 0.211-12.317 3.166-18.050 36.303-70.92 92.445-83.022 129.804-91.091 12.875-2.759 24.905-5.308 30.393-9.343 11.818-8.28 13.929-14.863 14.14-17.41 0.211-1.911-0.211-3.612-1.478-5.098-10.553-12.527-9.285-31.213 2.532-42.254 6.966-6.583 16.674-9.555 26.383-7.857 6.122 1.063 11.82 4.247 16.253 8.705 22.794 22.508 32.292 50.323 26.804 78.776-0.421 2.124-0.844 4.247-1.478 6.583-1.688 5.944 0.423 12.102 5.488 15.499l0.213 0.213c6.119 4.247 14.563 2.974 18.994-2.972 6.543-8.494 12.454-18.050 16.674-28.453 0.634-1.486 1.478-2.972 2.322-4.46 0.634-1.061 1.478-2.334 2.743-3.82 1.478-1.701 2.955-2.974 3.8-3.612 1.267-1.061 2.745-2.122 4.010-2.759 1.901-1.061 3.589-1.698 4.644-2.124 1.478-0.638 3.166-1.061 4.854-1.486 0.211 0 0.423 0 0.423 0 0.844-0.213 1.476-0.213 2.32-0.213 1.057 0 1.901-0.213 2.955-0.213 0.634 0 1.901 0 3.377 0.213 0.634 0 1.267 0.213 1.901 0.213 0.421 0 0.634 0.213 0.844 0.213 1.688 0.425 3.166 0.848 4.644 1.486 1.055 0.425 2.743 1.061 4.431 2.124 1.899 1.061 3.377 2.336 4.010 2.759 0.844 0.638 2.322 1.911 3.8 3.822 1.265 1.486 2.109 2.974 2.743 3.822 0.844 1.275 1.688 2.761 2.322 4.46 4.221 10.404 10.132 19.959 16.674 28.453 4.644 5.944 12.875 7.432 18.996 3.184 0 0 0.211 0 0.211-0.213 5.065-3.397 6.966-9.555 5.488-15.501-0.634-2.124-1.055-4.245-1.478-6.581-5.488-28.666 4.010-56.694 27.227-79.202 5.698-5.521 13.298-8.705 21.318-8.705 7.808 0 15.196 2.972 20.895 8.282 11.82 11.254 13.085 29.727 2.532 42.254-1.267 1.486-1.688 3.184-1.478 5.095 0.423 2.549 2.322 9.13 14.142 17.412 5.488 3.822 17.518 6.369 30.393 9.13 37.146 8.069 93.501 20.171 129.803 91.091 2.955 5.733 4.010 12.104 3.166 18.048 20.684 19.748 35.881 41.193 48.755 61.364 7.808 11.466 5.275 27.393-5.911 36.31z" />
<glyph unicode="&#xe976;" d="M402.033 556.699c56.776-52.022-179.402-26.117-228.157 8.918 27.649-42.679 57.83-75.803 110.596-97.249 30.393-12.527 24.274-31.638 1.688-26.965-14.563 2.972-36.302 15.286-60.152 44.377 43.268-84.51 117.141-65.824 150.487-88.967 32.294-22.508 32.504-50.961 18.786-67.523 38.834 37.796 16.251 87.481-39.47 109.989-33.136 13.165-54.664 26.54-68.804 44.59-10.976 13.8-6.122 26.117 10.13 26.753 26.172 1.275 49.179-4.67 58.887-15.074 11.607-12.317-1.478-27.818-29.549-15.926 21.316-31.213 66.905-44.59 103.843-45.863-66.063 29.514-31.027 52.657 8.652 35.035 25.751-11.466 57.832-44.165 72.606-80.050 0 139.716-109.541 167.956-109.541 167.956z" />
<glyph unicode="&#xe977;" d="M168.745 571.001c2.589 2.467 6.567 2.743 9.471 0.656 10.864-7.806 33.437-15.742 61.549-22.285 27.73-6.455 59.67-11.295 88.319-13.443 28.974-2.173 53.512-1.5 67.030 2.432 3.299 0.959 5.517 1.999 6.872 2.943 0.654 0.456 1.008 0.82 1.188 1.046 0.086 0.11 0.129 0.186 0.149 0.223 0.008 0.020 0.014 0.033 0.016 0.039 0.002 0.008 0.004 0.010 0.004 0.012l0.002 0.006c0 0 0 0.002 0 0.006s0.002 0.012 0.002 0.022c0 0.031 0.002 0.106-0.018 0.233-0.043 0.262-0.174 0.762-0.57 1.529-0.826 1.594-2.551 3.861-5.75 6.794-2.518 2.306-3.141 6.030-1.515 9.030 1.629 3 5.089 4.507 8.396 3.655l-1.858-7.201c1.858 7.201 1.862 7.201 1.866 7.199l0.012-0.002 0.033-0.008 0.094-0.027c0.076-0.018 0.178-0.047 0.305-0.082 0.253-0.072 0.609-0.174 1.061-0.309 0.899-0.27 2.181-0.674 3.787-1.237 3.211-1.12 7.73-2.864 13.124-5.4 10.776-5.069 25.112-13.339 39.452-26.178 28.866-25.853 57.246-69.818 57.246-141.913 0-3.552-2.51-6.608-5.995-7.297-3.483-0.689-6.968 1.181-8.321 4.464-6.992 16.985-18.17 33.395-30.759 46.953-12.638 13.61-26.305 23.93-37.994 29.136-9.044 4.016-17.596 5.598-24.212 5.47-7.148-0.141-10.177-2.16-10.794-2.982-0.008-0.010-0.014-0.018-0.022-0.029-0.069-0.088-0.133-0.166-0.049-0.601 0.139-0.726 0.75-2.328 2.904-4.748 4.354-4.885 13.426-11.344 29.579-18.561 3.248-1.451 5.014-4.999 4.213-8.466-0.801-3.469-3.947-5.88-7.503-5.758-15.46 0.533-32.41 3.103-48.657 8.139 17.48-11.229 30.289-25.68 36.535-41.753 8.926-22.969 3.906-47.948-17.469-68.751-2.833-2.757-7.327-2.817-10.232-0.135-2.906 2.68-3.205 7.166-0.685 10.209 5.494 6.632 8.217 15.632 6.295 25.342-1.921 9.7-8.656 20.913-23.595 31.327-7.049 4.891-16.646 7.822-28.919 10.641-3.031 0.697-6.224 1.386-9.539 2.101-9.651 2.081-20.335 4.386-31.045 7.74-29.508 9.245-60.627 26.802-83.361 71.204-1.731 3.385-0.634 7.53 2.545 9.613 1.49 0.975 3.211 1.351 4.869 1.173-23.89 19.012-42.1 42.053-59.167 68.397-1.944 3.003-1.478 6.962 1.111 9.429zM285.888 433.881c7.066-3.558 14.217-6.279 21.308-8.499 10.005-3.135 19.703-5.228 29.181-7.274 3.456-0.746 6.884-1.484 10.285-2.267 12.306-2.827 24.449-6.238 34.074-12.92l0.012-0.008c13.185-9.189 21.843-19.634 26.483-30.393-0.2 5.026-1.288 9.987-3.16 14.802-6.796 17.488-24.449 34.311-51.026 45.052-15.804 6.279-29.257 12.699-40.672 19.779 0.274-1.443 0.358-2.923 0.213-4.431-0.599-6.236-4.86-10.608-10.089-12.729-4.738-1.925-10.491-2.205-16.609-1.112zM282.935 477.071c-0.601 0.724-1.19 1.453-1.768 2.191-6.263 7.883-9.469 17.193-6.25 25.584 3.344 8.721 12.153 12.817 21.892 13.208 13.7 0.664 26.738-0.548 37.794-3.385 10.884-2.794 20.617-7.366 26.847-14.036 3.873-4.116 6.297-9.163 6.238-14.524-0.061-5.512-2.753-10.35-7.148-13.59-3.54-2.61-7.967-4.106-13.024-4.495 7.996-6.365 17.457-11.562 27.762-15.648 6.682-2.647 13.643-4.799 20.674-6.485-1.212 1.114-2.308 2.222-3.289 3.323-3.229 3.626-5.596 7.599-6.41 11.851-0.858 4.495 0.135 8.819 2.788 12.353 4.842 6.451 13.884 8.756 22.401 8.922 9.046 0.176 19.752-1.956 30.544-6.749l0.008-0.004c14.060-6.261 29.308-18.023 42.842-32.6 6.025-6.489 11.787-13.619 17.014-21.191-6.945 48.071-28.643 78.644-50.010 97.779-12.073 10.812-24.149 18.062-33.62 22.722-0.031-1.157-0.19-2.326-0.503-3.501-1.151-4.313-4.029-7.466-7.227-9.696-3.168-2.207-7.062-3.812-11.221-5.022-16.321-4.746-43.229-5.163-72.297-2.982-29.394 2.203-62.090 7.158-90.58 13.788-14.575 3.393-28.376 7.295-40.17 11.62 22.3-29.551 48.098-52.849 86.712-69.432zM234.238 487.523c13.721-9.946 29.279-18.665 47.417-26.039 6.962-2.872 11.297-5.909 13.719-8.427 2.040-2.122 2.348-3.434 2.395-3.804-0.123-0.108-0.376-0.278-0.871-0.48-1.494-0.607-4.515-1.063-9.23-0.088l-0.020 0.004c-11.859 2.42-31.221 12.709-53.409 38.834zM297.867 449.382c0.008-0.002-0.004-0.035-0.059-0.092 0.022 0.065 0.051 0.094 0.059 0.092zM343.13 452.734c-8.856 6.24-16.691 13.749-22.798 22.694-1.862 2.725-1.705 6.352 0.386 8.907 2.093 2.553 5.617 3.424 8.656 2.136 13.040-5.525 20.128-3.608 22.34-1.976 0.936 0.689 1.093 1.294 1.098 1.778 0.008 0.632-0.28 2.134-2.201 4.172l-0.027 0.029c-3.479 3.728-10.099 7.327-19.681 9.786-9.41 2.416-20.946 3.54-33.406 2.935l-0.069-0.004c-6.5-0.253-8.225-2.635-8.623-3.671-0.525-1.371-0.681-5.108 4.022-11.021l0.033-0.043c10.763-13.737 26.469-24.885 50.27-35.721z" />
<glyph unicode="&#xe978;" d="M738.678 468.368c52.764 21.447 82.946 54.57 110.596 97.249-48.755-35.035-284.934-60.939-228.158-8.918 0 0-109.541-28.241-109.541-167.956 14.773 35.672 46.855 68.583 72.606 80.050 39.678 17.623 74.926-5.521 8.652-35.035 36.938 1.273 82.525 14.651 103.843 45.863-28.071-11.891-41.156 3.397-29.549 15.924 9.709 10.406 32.715 16.351 58.887 15.076 16.251-0.636 21.105-12.952 10.13-26.753-14.14-18.050-35.668-31.425-68.594-44.803-55.721-22.508-78.304-72.193-39.47-109.989-13.719 16.562-13.506 45.015 18.786 67.523 33.348 23.356 107.22 4.458 150.487 88.967-23.85-29.091-45.589-41.406-60.152-44.377-22.796-4.46-28.915 14.651 1.478 27.178z" />
</font>
</defs>
</svg>
